<svg width="87" height="87" viewBox="0 0 87 87" fill="none" xmlns="http://www.w3.org/2000/svg">
<g clip-path="url(#clip0)">
<path d="M54.5 8L29 2L25.5 4L18 28.5L48 81L53.5 83.5L84.5 66.5V60.5L54.5 8Z" fill="#396BEB" stroke="black"/>
<path d="M39 15.5C39.8 13.1 36 12.1667 34 12H32C31.5 12.6667 30.5 14.1 30.5 14.5C30.5 15 31.5 18 32 18.5C32.4 18.9 34.1667 19.6667 35 20C36 19.5 38.2 17.9 39 15.5Z" fill="white"/>
<path d="M48.5 52C51.3 47.2 47.3333 45.3333 45 45L41.5 49C42.6667 52 45.7 56.8 48.5 52Z" fill="white"/>
<path d="M72 56.5C72.8 53.7 69 52.6667 67 52.5L64.5 54V58.5L68 60.5C69 60.3333 71.2 59.3 72 56.5Z" fill="white"/>
<path d="M86.0865 59.0799L56.9326 8.58334C56.2524 7.40509 55.154 6.56194 53.8402 6.20884L31.5913 0.234192C30.8413 0.0328338 30.0768 -0.0375142 29.3244 0.0178806C29.2587 0.0102341 29.192 0.00513641 29.1242 0.00513641H6.21988C3.46033 0.00513641 1.06833 1.77947 0.26766 4.42023C-0.250604 6.13 -0.0084643 7.98147 0.932397 9.50024C1.87326 11.019 3.42312 12.0605 5.18454 12.3578L13.5034 13.7621L8.9699 18.2905C8.00576 19.2536 7.47492 20.5345 7.47492 21.8971V80.203C7.47492 83.9508 10.524 86.9999 14.2718 86.9999H45.8772C47.7999 86.9999 49.6113 86.178 50.8845 84.7912C50.9464 84.8096 51.0077 84.8291 51.0704 84.8459C51.656 85.0028 52.2502 85.0804 52.8405 85.0804C54.0182 85.0804 55.1807 84.7715 56.2279 84.1669L83.599 68.3643C85.1713 67.4566 86.296 65.9908 86.7659 64.2372C87.2355 62.4836 86.9942 60.6522 86.0865 59.0799ZM5.75038 9.00695C4.93968 8.87 4.25455 8.40968 3.82159 7.71062C3.38846 7.01155 3.28141 6.19321 3.51998 5.4063C3.8831 4.20834 4.96823 3.40359 6.22005 3.40359H23.8736L16.455 10.8139L5.75038 9.00695ZM21.877 10.2013L21.4845 11.663L20.5685 11.5084L21.877 10.2013ZM45.8774 83.6016H19.0295V68.651C19.0295 67.7125 18.2687 66.9517 17.3303 66.9517C16.3918 66.9517 15.631 67.7125 15.631 68.651V83.6018H14.2717C12.3977 83.6018 10.8732 82.0772 10.8732 80.2033V21.8971C10.8732 21.4429 11.0503 21.0159 11.3716 20.6949L17.6171 14.4564L20.5992 14.9599L17.2817 27.3136C16.9282 28.6296 17.1087 30.0045 17.7902 31.1846L46.9433 81.6791C47.2099 82.1411 47.526 82.5632 47.8823 82.9425C47.3085 83.3624 46.6091 83.6016 45.8774 83.6016ZM83.483 63.3577C83.2481 64.2345 82.6857 64.9674 81.8996 65.4212L54.5285 81.2239C53.7423 81.6777 52.8264 81.798 51.9498 81.5634C51.073 81.3284 50.3401 80.7661 49.8862 79.9799L20.7331 29.4857C20.5061 29.0923 20.4458 28.634 20.5635 28.1955L23.9652 15.5284L29.0546 16.3875C29.1727 17.0283 29.4009 17.6511 29.7363 18.232C30.5079 19.5685 31.7538 20.5245 33.2444 20.9238C33.7421 21.0572 34.2472 21.1231 34.749 21.1231C35.7502 21.1231 36.7381 20.8606 37.6284 20.3466C38.9648 19.5749 39.9208 18.3291 40.3201 16.8385C40.7196 15.348 40.5147 13.791 39.743 12.4545C38.9714 11.1181 37.7255 10.1621 36.235 9.76277C34.7444 9.36328 33.1874 9.56838 31.851 10.3398C30.7744 10.9614 29.9451 11.8912 29.4544 13.0083L24.8507 12.2312L26.5463 5.91708C26.7819 5.04045 27.3445 4.30792 28.1309 3.85439C28.6542 3.55261 29.2347 3.39849 29.823 3.39849C30.1188 3.39849 30.4165 3.4374 30.7098 3.51625L43.5962 6.97689C43.6079 6.99949 43.6181 7.0226 43.631 7.04486L51.8736 21.3212C52.1883 21.8665 52.7594 22.171 53.3467 22.171C53.6349 22.171 53.9272 22.0976 54.1948 21.9432C55.0075 21.474 55.286 20.4348 54.8167 19.622L48.2353 8.22276L52.9584 9.49106C53.3965 9.60865 53.7625 9.88987 53.9893 10.2826L83.1435 60.779C83.5975 61.5652 83.7178 62.4809 83.483 63.3577ZM33.3602 13.6678L33.0986 13.6236C33.2342 13.4946 33.384 13.3791 33.5502 13.2831C33.9167 13.0713 34.3235 12.9634 34.7358 12.9634C34.9424 12.9634 35.1504 12.9906 35.3553 13.0455C35.9691 13.21 36.4821 13.6035 36.7998 14.1539C37.1176 14.7043 37.2018 15.3452 37.0374 15.9592C36.8729 16.5729 36.4793 17.0859 35.929 17.4037C35.3787 17.7216 34.7376 17.8059 34.1237 17.6412C33.722 17.5337 33.365 17.3264 33.0761 17.0428C33.0773 17.0426 33.0783 17.0428 33.0795 17.0428C33.8936 17.0428 34.6129 16.4557 34.7529 15.6261C34.9091 14.7007 34.2856 13.8239 33.3602 13.6678Z" fill="#353535"/>
<path d="M73.3721 53.4065C71.7279 50.5586 68.0734 49.5793 65.2257 51.2235C62.3779 52.8677 61.3988 56.5222 63.0428 59.3699C64.1463 61.281 66.1548 62.3505 68.2175 62.3505C69.2285 62.3505 70.2526 62.0934 71.1893 61.5527C72.5687 60.7563 73.5556 59.4703 73.9678 57.9317C74.3801 56.393 74.1685 54.7859 73.3721 53.4065ZM70.6851 57.052C70.5079 57.7139 70.0834 58.267 69.49 58.6095C68.2651 59.3169 66.6933 58.8955 65.9859 57.6707C65.2787 56.4459 65.6999 54.8739 66.9247 54.1666C67.32 53.9384 67.7585 53.8218 68.203 53.8218C68.4258 53.8218 68.6501 53.851 68.8712 53.9103C69.533 54.0875 70.0861 54.5122 70.4289 55.1056C70.7716 55.6989 70.8625 56.3902 70.6851 57.052Z" fill="#353535"/>
<path d="M50.6122 46.0981C49.8158 44.7187 48.5298 43.7319 46.9911 43.3197C45.4527 42.9076 43.8454 43.1192 42.4658 43.9155C41.0863 44.7119 40.0994 45.9979 39.6872 47.5365C39.275 49.0751 39.4865 50.6823 40.2829 52.0617C41.3862 53.9728 43.3949 55.0423 45.4576 55.0423C46.4686 55.0423 47.4926 54.7854 48.4294 54.2445C49.809 53.4479 50.7957 52.1621 51.2079 50.6233C51.6202 49.0845 51.4086 47.4775 50.6122 46.0981ZM47.9254 49.744C47.7481 50.4058 47.3235 50.9589 46.7303 51.3015C45.5055 52.0089 43.9335 51.5876 43.2262 50.3627C42.8836 49.7693 42.7925 49.078 42.9699 48.4162C43.1471 47.7543 43.5716 47.2012 44.165 46.8587C44.5602 46.6305 44.999 46.5139 45.4435 46.5139C45.6662 46.5139 45.8905 46.5431 46.1116 46.6024C46.7735 46.7797 47.3266 47.2043 47.6691 47.7975C48.0117 48.3909 48.1028 49.0821 47.9254 49.744Z" fill="#353535"/>
<path d="M56.156 40.1668C55.2175 40.1668 54.4568 40.9276 54.4568 41.866V66.995C54.4568 67.9335 55.2175 68.6943 56.156 68.6943C57.0945 68.6943 57.8552 67.9335 57.8552 66.995V41.866C57.8552 40.9276 57.0945 40.1668 56.156 40.1668Z" fill="#353535"/>
<path d="M18.5317 58.7677C18.2156 58.4517 17.7772 58.2698 17.3303 58.2698C16.8834 58.2698 16.445 58.4517 16.129 58.7677C15.8129 59.0838 15.6311 59.5222 15.6311 59.9708C15.6311 60.416 15.8129 60.8544 16.129 61.1721C16.445 61.4882 16.8834 61.6683 17.3303 61.6683C17.7772 61.6683 18.2156 61.4882 18.5317 61.1721C18.8477 60.8544 19.0296 60.4177 19.0296 59.9708C19.0294 59.5222 18.8476 59.0838 18.5317 58.7677Z" fill="#353535"/>
<path d="M58.8879 26.7885C58.5718 26.4724 58.1334 26.2906 57.6865 26.2906C57.2379 26.2906 56.8012 26.4724 56.4835 26.7885C56.1674 27.1045 55.9873 27.5429 55.9873 27.9898C55.9873 28.4384 56.1674 28.8751 56.4835 29.1912C56.8012 29.5089 57.2396 29.689 57.6865 29.689C58.1334 29.689 58.5701 29.5089 58.8879 29.1912C59.2039 28.8751 59.3858 28.4367 59.3858 27.9898C59.3858 27.5429 59.2039 27.1062 58.8879 26.7885Z" fill="#353535"/>
</g>
<defs>
<clipPath id="clip0">
<rect width="87" height="87" fill="white"/>
</clipPath>
</defs>
</svg>
