<svg width="80" height="80" viewBox="0 0 80 80" fill="none" xmlns="http://www.w3.org/2000/svg">
<path d="M70.9675 26.4515H49.0321C44.0529 26.4515 40 22.3987 40 17.4194C40 12.4401 44.0529 8.38724 49.0321 8.38724C49.5264 8.38724 50.0179 8.42734 50.5032 8.50728C52.3019 3.82226 56.8387 0.645447 61.9353 0.645447C67.0875 0.645447 71.721 3.93715 73.4593 8.73841C77.2916 9.83529 79.9999 13.3692 79.9999 17.4197C79.9996 22.3987 75.9468 26.4515 70.9675 26.4515Z" fill="#396BEB"/>
<path d="M78.1701 42.8038C73.658 40.5469 68.605 39.3547 63.5598 39.3547H47.2902L32.6669 29.0322H20.1108L30.4333 39.3547H19.845L8.2322 29.0322H0.594727L5.70706 40.5366L3.87099 40.8425V45.1794L4.69554 45.769C10.6387 50.0142 17.6413 52.2581 24.9446 52.2581H27.8529L18.4116 61.6991L19.7304 62.57C20.142 62.8423 20.5303 63.1559 20.8839 63.5016L21.2606 63.8707H28.7972L45.2487 52.2578H63.2358C67.6861 52.2578 72.0164 51.3688 76.1053 49.6164L77.9942 48.8073C79.2122 48.2836 79.9994 47.0899 79.9994 45.7646C79.9997 44.503 79.299 43.3688 78.1701 42.8038ZM26.3404 31.6129H31.8489L42.8165 39.3547H34.0824L26.3404 31.6129ZM4.56629 31.6129H7.25157L15.9613 39.3547H14.1845C13.2632 39.3547 12.3355 39.4321 11.4272 39.5831L8.33679 40.0979L4.56629 31.6129ZM76.9779 46.4347L75.0889 47.2439C71.3211 48.8594 67.3355 49.6774 63.236 49.6774H48.9046L51.0672 48.1511L49.5782 46.0427L27.9784 61.2902H22.4696L35.7508 48.0091L33.9264 46.1846L30.4336 49.6774H24.9444C18.2875 49.6774 11.9005 47.6633 6.45141 43.8503V43.0284L11.8515 42.1277C12.6205 42.0001 13.4063 41.9353 14.1845 41.9353H63.5598C68.2075 41.9353 72.8605 43.0333 77.0152 45.1108C77.2643 45.236 77.419 45.4864 77.419 45.7649C77.419 46.0565 77.2448 46.3199 76.9779 46.4347Z" fill="#353535"/>
<path d="M23.2257 79.3546H7.74179C3.47217 79.3546 0 75.8824 0 71.6128C0 67.8219 2.79096 64.6115 6.47882 64.0037C8.29294 60.7651 11.7497 58.7096 15.4839 58.7096C20.3897 58.7096 24.5911 62.1793 25.5793 66.9082C28.031 67.8645 29.6774 70.2178 29.6774 72.9031C29.6774 76.4604 26.7832 79.3546 23.2257 79.3546Z" fill="#396BEB"/>
<path d="M69.6772 66.4514H43.8708V69.032H69.6772V66.4514Z" fill="#353535"/>
<path d="M41.2902 66.4514H38.7095V69.032H41.2902V66.4514Z" fill="#353535"/>
<path d="M32.2578 9.67731H11.6128V12.258H32.2578V9.67731Z" fill="#353535"/>
<path d="M9.03259 9.67731H6.4519V12.258H9.03259V9.67731Z" fill="#353535"/>
<path d="M25.8068 16.129H6.4519V18.7097H25.8068V16.129Z" fill="#353535"/>
<path d="M3.87122 16.129H1.29053V18.7097H3.87122V16.129Z" fill="#353535"/>
</svg>
