<svg width="80" height="80" viewBox="0 0 80 80" fill="none" xmlns="http://www.w3.org/2000/svg">
<path d="M11.613 58.0646H21.9356V78.7097H11.613V58.0646Z" fill="#396BEB"/>
<path d="M60.6453 13.4375L56.7744 9.56655L54.1937 12.1472L51.6131 9.56655L49.0324 12.1472L46.4518 9.56655L42.5808 13.4375V1.29034H60.6453V13.4375Z" fill="#396BEB"/>
<path d="M60.6453 47.742H42.5808V35.5948L46.4518 39.4658L49.0324 36.8851L51.6131 39.4658L54.1937 36.8851L56.7744 39.4658L60.6453 35.5948V47.742Z" fill="#396BEB"/>
<path d="M15.4839 61.9355H18.0645V64.5161H15.4839V61.9355Z" fill="#353535"/>
<path d="M65.8065 15.4839H37.4194V33.5484H65.8065V15.4839ZM63.2259 30.9678H40.0001V18.0645H63.2259V30.9678Z" fill="#353535"/>
<path d="M43.8711 20.6451H59.355V23.2258H43.8711V20.6451Z" fill="#353535"/>
<path d="M43.8711 25.8065H59.355V28.3871H43.8711V25.8065Z" fill="#353535"/>
<path d="M76.129 0H27.0968C24.9628 0 23.2258 1.73702 23.2258 3.87097V6.73954H25.8064V3.87097C25.8064 3.15902 26.3861 2.58065 27.0968 2.58065H47.7419V5.16129H50.3226V2.58065H52.9032V5.16129H55.4839V2.58065H76.129C76.8397 2.58065 77.4193 3.15902 77.4193 3.87097V45.1613C77.4193 45.8732 76.8397 46.4516 76.129 46.4516H55.4839V43.871H52.9032V46.4516H50.3226V43.871H47.7419V46.4516H40V42.8931C40 40.6823 39.1394 38.6051 37.5756 37.0401C36.9947 36.4617 36.192 36.129 35.373 36.129C33.6555 36.129 32.2581 37.5265 32.2581 39.2439V46.4516H27.0968C26.3861 46.4516 25.8064 45.8732 25.8064 45.1613V27.609H23.2258V45.1613C23.2258 47.2952 24.9628 49.0323 27.0968 49.0323H32.178C31.795 52.9448 29.7033 56.497 26.3911 58.7046C25.7535 59.1305 25.0113 59.3548 24.244 59.3548H23.2258V56.7742H0V80H23.2258V77.4193H23.6788C24.0953 77.4193 24.5073 77.4861 24.9017 77.6166L27.1843 78.3795C27.844 78.5988 28.5301 78.7097 29.2244 78.7097H47.7419C49.8759 78.7097 51.6129 76.9727 51.6129 74.8387C51.6129 73.8439 51.2248 72.9448 50.6067 72.2581C51.2261 71.5713 51.6129 70.6722 51.6129 69.6774C51.6129 68.6826 51.2248 67.7835 50.6067 67.0968C51.2261 66.41 51.6129 65.511 51.6129 64.5161C51.6129 63.5213 51.2248 62.6222 50.6067 61.9355C51.2261 61.2487 51.6129 60.3497 51.6129 59.3548C51.6129 57.2209 49.8759 55.4839 47.7419 55.4839H41.2903C40.5796 55.4839 40 54.9055 40 54.1935V49.0323H76.129C78.263 49.0323 80 47.2952 80 45.1613V3.87097C80 1.73702 78.263 0 76.129 0ZM20.6452 77.4193H18.0645V67.0968H15.4839V77.4193H12.9032V61.9355H10.3226V77.4193H2.58065V59.3548H5.16129V74.8387H7.74194V59.3548H20.6452V77.4193ZM28.0015 75.9318L25.7189 75.1688C25.0592 74.9496 24.3731 74.8387 23.6788 74.8387H23.2258V61.9355H24.244C25.5223 61.9355 26.7597 61.5612 27.8219 60.8518C32.2152 57.924 34.8387 53.0217 34.8387 47.7419V39.2439C34.8387 38.808 35.4423 38.5572 35.751 38.8659C36.8271 39.942 37.4194 41.3716 37.4194 42.8931V54.1935C37.4194 54.8828 37.6014 55.5318 37.9177 56.0931C36.8429 56.7818 36.129 57.9858 36.129 59.3548C36.129 60.3497 36.5171 61.2487 37.1352 61.9355C36.5159 62.6222 36.129 63.5213 36.129 64.5161C36.129 65.511 36.5171 66.41 37.1352 67.0968C36.5159 67.7835 36.129 68.6826 36.129 69.6774C36.129 70.6722 36.5171 71.5713 37.1352 72.2581C36.5159 72.9448 36.129 73.8439 36.129 74.8387C36.129 75.293 36.2216 75.7239 36.3666 76.129H29.2244C28.808 76.129 28.3959 76.0622 28.0015 75.9318ZM49.0323 64.5161C49.0323 65.2281 48.4526 65.8064 47.7419 65.8064H40C39.2893 65.8064 38.7097 65.2281 38.7097 64.5161C38.7097 63.8042 39.2893 63.2258 40 63.2258H47.7419C48.4526 63.2258 49.0323 63.8042 49.0323 64.5161ZM49.0323 69.6774C49.0323 70.3894 48.4526 70.9677 47.7419 70.9677H40C39.2893 70.9677 38.7097 70.3894 38.7097 69.6774C38.7097 68.9655 39.2893 68.3871 40 68.3871H47.7419C48.4526 68.3871 49.0323 68.9655 49.0323 69.6774ZM47.7419 76.129H40C39.2893 76.129 38.7097 75.5507 38.7097 74.8387C38.7097 74.1268 39.2893 73.5484 40 73.5484H47.7419C48.4526 73.5484 49.0323 74.1268 49.0323 74.8387C49.0323 75.5507 48.4526 76.129 47.7419 76.129ZM47.7419 58.0645C48.4526 58.0645 49.0323 58.6429 49.0323 59.3548C49.0323 60.0668 48.4526 60.6452 47.7419 60.6452H40C39.2893 60.6452 38.7097 60.0668 38.7097 59.3548C38.7097 58.6429 39.2893 58.0645 40 58.0645H47.7419Z" fill="#353535"/>
<path d="M18.0646 33.6712L17.541 33.4375C10.0209 30.0945 5.16138 22.6178 5.16138 14.3882V8.19493L18.0646 2.45905L30.9678 8.19493V14.3895C30.9678 22.6191 26.1083 30.0958 18.5882 33.4388L18.0646 33.6712Z" fill="#396BEB"/>
<path d="M25.671 10.8991L23.3613 9.74609L16.4208 23.6284L13.8156 21.0232L11.991 22.8478L17.1277 27.9845L25.671 10.8991Z" fill="#353535"/>
</svg>
