<svg width="87" height="87" viewBox="0 0 87 87" fill="none" xmlns="http://www.w3.org/2000/svg">
<g clip-path="url(#clip0)">
<path d="M26 27.5L19.5 25.5C28.3453 -6.60472 58.2788 -6.74388 67.5 25.5C66.6667 25.8333 64.2 26.7 61 27.5C59 21.9999 52 12.5 44.5 8.49997C38.5 5.29997 29.6667 19.8333 26 27.5Z" fill="#396BEB"/>
<mask id="path-2-inside-1" fill="white">
<path d="M85.8631 63.4491L73.9122 31.7695C73.9053 31.6358 73.8804 31.5036 73.8382 31.3766L71.9793 26.5916C71.4476 25.2451 70.2861 24.2475 68.8749 23.925C64.0638 12.8296 55.8409 0 43.4999 0C31.159 0 22.9258 12.8455 18.1162 23.9511C16.7413 24.2928 15.6149 25.2756 15.09 26.5916L13.2195 31.4259V31.4331L1.1367 63.4491C-0.88038 68.8043 -0.141794 74.8084 3.11305 79.5151C6.32279 84.2286 11.6684 87.0349 17.3709 87H69.6289C75.3314 87.0349 80.677 84.2286 83.8867 79.5151C87.1416 74.8084 87.8802 68.8043 85.8631 63.4491ZM70.6613 31.2055C68.2372 32.3016 65.7227 33.1855 63.146 33.8474L61.8569 29.9701C61.7003 29.5025 61.7921 28.9874 62.1005 28.6027C62.2871 28.3661 62.5449 28.1959 62.8357 28.117L67.5424 26.767C67.655 26.7313 67.7722 26.7118 67.8904 26.709C68.505 26.6874 69.064 27.0628 69.2766 27.6399L70.6613 31.2055ZM19.1254 26.709C19.2651 26.7119 19.4038 26.7319 19.5387 26.7685L24.2584 28.1242C24.5386 28.1996 24.7853 28.3671 24.9587 28.5998C25.2836 28.974 25.3827 29.4938 25.2183 29.9614L23.9133 33.8633C21.3383 33.2037 18.8249 32.3236 16.4009 31.233L17.7929 27.6413C18.011 27.0923 18.5349 26.7258 19.1254 26.709ZM27.9704 30.8865C28.3361 29.7782 28.2367 28.5691 27.6949 27.5355C32.6583 16.4836 38.3945 10.15 43.4999 10.15C48.6054 10.15 54.359 16.514 59.3267 27.621C58.8302 28.6364 58.7501 29.8056 59.1034 30.8792L60.317 34.5332C54.7891 35.7071 49.151 36.2827 43.4999 36.25C37.8693 36.282 32.2514 35.7113 26.7423 34.5477L27.9704 30.8865ZM43.4999 2.9C53.9805 2.9 61.3451 14.1448 65.8444 24.2368L62.0367 25.3286C61.8735 25.3789 61.7132 25.4385 61.5568 25.507C57.5533 16.82 51.3589 7.25 43.4999 7.25C35.6409 7.25 29.445 16.8099 25.4459 25.4765C25.3121 25.4202 25.1751 25.3718 25.0356 25.3315L21.1699 24.215C25.6649 14.1317 33.0251 2.9 43.4999 2.9ZM81.5015 77.865C78.8295 81.7911 74.3779 84.1289 69.6289 84.1H17.3709C12.6155 84.0864 8.16896 81.7419 5.47127 77.8257C2.77358 73.9095 2.16763 68.9194 3.84965 64.4714L15.3699 33.9474C18.95 35.5743 28.5345 39.15 43.4999 39.15C58.4654 39.15 68.0499 35.5743 71.6299 33.9474L83.1458 64.4714C84.8611 68.9313 84.2447 73.9524 81.5015 77.865Z"/>
</mask>
<path d="M85.8631 63.4491L73.9122 31.7695C73.9053 31.6358 73.8804 31.5036 73.8382 31.3766L71.9793 26.5916C71.4476 25.2451 70.2861 24.2475 68.8749 23.925C64.0638 12.8296 55.8409 0 43.4999 0C31.159 0 22.9258 12.8455 18.1162 23.9511C16.7413 24.2928 15.6149 25.2756 15.09 26.5916L13.2195 31.4259V31.4331L1.1367 63.4491C-0.88038 68.8043 -0.141794 74.8084 3.11305 79.5151C6.32279 84.2286 11.6684 87.0349 17.3709 87H69.6289C75.3314 87.0349 80.677 84.2286 83.8867 79.5151C87.1416 74.8084 87.8802 68.8043 85.8631 63.4491ZM70.6613 31.2055C68.2372 32.3016 65.7227 33.1855 63.146 33.8474L61.8569 29.9701C61.7003 29.5025 61.7921 28.9874 62.1005 28.6027C62.2871 28.3661 62.5449 28.1959 62.8357 28.117L67.5424 26.767C67.655 26.7313 67.7722 26.7118 67.8904 26.709C68.505 26.6874 69.064 27.0628 69.2766 27.6399L70.6613 31.2055ZM19.1254 26.709C19.2651 26.7119 19.4038 26.7319 19.5387 26.7685L24.2584 28.1242C24.5386 28.1996 24.7853 28.3671 24.9587 28.5998C25.2836 28.974 25.3827 29.4938 25.2183 29.9614L23.9133 33.8633C21.3383 33.2037 18.8249 32.3236 16.4009 31.233L17.7929 27.6413C18.011 27.0923 18.5349 26.7258 19.1254 26.709ZM27.9704 30.8865C28.3361 29.7782 28.2367 28.5691 27.6949 27.5355C32.6583 16.4836 38.3945 10.15 43.4999 10.15C48.6054 10.15 54.359 16.514 59.3267 27.621C58.8302 28.6364 58.7501 29.8056 59.1034 30.8792L60.317 34.5332C54.7891 35.7071 49.151 36.2827 43.4999 36.25C37.8693 36.282 32.2514 35.7113 26.7423 34.5477L27.9704 30.8865ZM43.4999 2.9C53.9805 2.9 61.3451 14.1448 65.8444 24.2368L62.0367 25.3286C61.8735 25.3789 61.7132 25.4385 61.5568 25.507C57.5533 16.82 51.3589 7.25 43.4999 7.25C35.6409 7.25 29.445 16.8099 25.4459 25.4765C25.3121 25.4202 25.1751 25.3718 25.0356 25.3315L21.1699 24.215C25.6649 14.1317 33.0251 2.9 43.4999 2.9ZM81.5015 77.865C78.8295 81.7911 74.3779 84.1289 69.6289 84.1H17.3709C12.6155 84.0864 8.16896 81.7419 5.47127 77.8257C2.77358 73.9095 2.16763 68.9194 3.84965 64.4714L15.3699 33.9474C18.95 35.5743 28.5345 39.15 43.4999 39.15C58.4654 39.15 68.0499 35.5743 71.6299 33.9474L83.1458 64.4714C84.8611 68.9313 84.2447 73.9524 81.5015 77.865Z" fill="#8F8F8F"/>
<path d="M73.9122 31.7695L65.3904 32.212L65.4592 33.5386L65.9281 34.7814L73.9122 31.7695ZM73.8382 31.3766L81.938 28.691L81.8703 28.4869L81.7924 28.2865L73.8382 31.3766ZM71.9793 26.5916L79.9335 23.5015L79.9249 23.4792L79.9161 23.457L71.9793 26.5916ZM68.8749 23.925L61.0459 27.3198L62.7639 31.2818L66.9738 32.2439L68.8749 23.925ZM18.1162 23.9511L20.1744 32.2325L24.2697 31.2147L25.9467 27.3424L18.1162 23.9511ZM15.09 26.5916L7.16393 23.4302L7.14759 23.4711L7.13167 23.5123L15.09 26.5916ZM13.2195 31.4259L5.26117 28.3466L4.68622 29.8325V31.4259H13.2195ZM13.2195 31.4331L21.2032 34.4461L21.7529 32.9898V31.4331H13.2195ZM1.1367 63.4491L-6.84699 60.4361L-6.84896 60.4413L1.1367 63.4491ZM3.11305 79.5151L10.1663 74.7121L10.1491 74.6867L10.1316 74.6615L3.11305 79.5151ZM17.3709 87V78.4667H17.3448L17.3187 78.4668L17.3709 87ZM69.6289 87L69.6811 78.4668L69.655 78.4667H69.6289V87ZM83.8867 79.5151L76.8682 74.6615L76.8507 74.6867L76.8335 74.7121L83.8867 79.5151ZM70.6613 31.2055L74.1772 38.9808L81.5419 35.6506L78.6158 28.1162L70.6613 31.2055ZM63.146 33.8474L55.0484 36.5395L57.5595 44.0925L65.2688 42.1124L63.146 33.8474ZM61.8569 29.9701L69.9545 27.2779L69.9515 27.2692L69.9486 27.2605L61.8569 29.9701ZM62.1005 28.6027L68.7586 33.94L68.7794 33.9142L68.7999 33.8881L62.1005 28.6027ZM62.8357 28.117L65.0702 36.3525L65.1294 36.3365L65.1883 36.3196L62.8357 28.117ZM67.5424 26.767L69.895 34.9696L70.0062 34.9377L70.1164 34.9028L67.5424 26.767ZM67.8904 26.709L68.0941 35.2399L68.1422 35.2388L68.1903 35.2371L67.8904 26.709ZM69.2766 27.6399L61.2691 30.5891L61.2949 30.6594L61.322 30.7292L69.2766 27.6399ZM19.5387 26.7685L21.8946 18.5668L21.8337 18.5493L21.7726 18.5327L19.5387 26.7685ZM24.2584 28.1242L21.9025 36.3259L21.972 36.3459L22.0419 36.3647L24.2584 28.1242ZM24.9587 28.5998L18.1165 33.6989L18.3065 33.9539L18.515 34.1941L24.9587 28.5998ZM25.2183 29.9614L17.1684 27.13L17.1465 27.1922L17.1256 27.2548L25.2183 29.9614ZM23.9133 33.8633L21.7956 42.1297L29.4875 44.1002L32.006 36.5699L23.9133 33.8633ZM16.4009 31.233L8.44419 28.1493L5.51986 35.6947L12.8996 39.015L16.4009 31.233ZM17.7929 27.6413L9.86241 24.4908L9.84916 24.5242L9.83619 24.5576L17.7929 27.6413ZM27.9704 30.8865L36.0607 33.6003L36.0674 33.5803L36.074 33.5604L27.9704 30.8865ZM27.6949 27.5355L19.9105 24.0396L18.2113 27.8233L20.1369 31.497L27.6949 27.5355ZM59.3267 27.621L66.9928 31.369L68.7466 27.7819L67.1164 24.137L59.3267 27.621ZM59.1034 30.8792L50.9975 33.5462L51.0013 33.5576L51.005 33.569L59.1034 30.8792ZM60.317 34.5332L62.0896 42.8804L71.4229 40.8984L68.4153 31.8434L60.317 34.5332ZM43.4999 36.25L43.5492 27.7168L43.5003 27.7165L43.4514 27.7168L43.4999 36.25ZM26.7423 34.5477L18.652 31.8338L15.6051 40.9169L24.9788 42.8968L26.7423 34.5477ZM65.8444 24.2368L68.1965 32.4395L77.6375 29.7323L73.6382 20.762L65.8444 24.2368ZM62.0367 25.3286L59.6846 17.1258L59.603 17.1492L59.5219 17.1743L62.0367 25.3286ZM61.5568 25.507L53.8068 29.0786L57.3097 36.6794L64.9772 33.3248L61.5568 25.507ZM25.4459 25.4765L22.1386 33.3429L29.7395 36.5385L33.1942 29.0518L25.4459 25.4765ZM25.0356 25.3315L27.4047 17.1336L27.4034 17.1333L25.0356 25.3315ZM21.1699 24.215L13.3759 20.7406L9.38489 29.6934L18.8021 32.4132L21.1699 24.215ZM69.6289 84.1L69.6808 75.5668L69.6549 75.5667H69.6289V84.1ZM17.3709 84.1L17.3465 92.6333L17.3587 92.6333H17.3709V84.1ZM3.84965 64.4714L11.8314 67.4896L11.8333 67.4845L3.84965 64.4714ZM15.3699 33.9474L18.9003 26.1786L10.604 22.4085L7.38625 30.9342L15.3699 33.9474ZM71.6299 33.9474L79.6139 30.9352L76.3968 22.408L68.0995 26.1786L71.6299 33.9474ZM83.1458 64.4714L75.1618 67.4835L75.1714 67.509L75.1812 67.5345L83.1458 64.4714ZM93.8472 60.4372L81.8963 28.7576L65.9281 34.7814L77.879 66.461L93.8472 60.4372ZM82.4341 31.327C82.3875 30.4302 82.2207 29.5436 81.938 28.691L65.7385 34.0621C65.5401 33.4637 65.423 32.8414 65.3904 32.212L82.4341 31.327ZM81.7924 28.2865L79.9335 23.5015L64.0252 29.6816L65.8841 34.4666L81.7924 28.2865ZM79.9161 23.457C78.3505 19.4929 74.931 16.5557 70.776 15.6061L66.9738 32.2439C65.6413 31.9394 64.5447 30.9974 64.0426 29.7261L79.9161 23.457ZM76.7039 20.5302C74.1229 14.5779 70.4155 7.63001 65.3095 2.04428C60.1716 -3.57627 52.9151 -8.53333 43.4999 -8.53333V8.53333C46.4257 8.53333 49.4511 9.99107 52.7127 13.5592C56.0062 17.1621 58.8158 22.1767 61.0459 27.3198L76.7039 20.5302ZM43.4999 -8.53333C34.0817 -8.53333 26.8222 -3.56915 21.6838 2.05535C16.576 7.64628 12.8665 14.6006 10.2857 20.5598L25.9467 27.3424C28.1755 22.196 30.9874 17.1748 34.2839 13.5666C37.5496 9.99193 40.5772 8.53333 43.4999 8.53333V-8.53333ZM16.058 15.6697C12.0169 16.674 8.70658 19.5625 7.16393 23.4302L23.0162 29.7529C22.5233 30.9887 21.4656 31.9116 20.1744 32.2325L16.058 15.6697ZM7.13167 23.5123L5.26117 28.3466L21.1779 34.5051L23.0484 29.6708L7.13167 23.5123ZM4.68622 31.4259V31.4331H21.7529V31.4259H4.68622ZM5.23586 28.4201L-6.84699 60.4361L9.12039 66.4622L21.2032 34.4461L5.23586 28.4201ZM-6.84896 60.4413C-9.85303 68.4169 -8.75304 77.3589 -3.90554 84.3687L10.1316 74.6615C8.46945 72.2579 8.09227 69.1917 9.12235 66.4569L-6.84896 60.4413ZM-3.94021 84.3182C0.869112 91.3806 8.87876 95.5854 17.4231 95.5332L17.3187 78.4668C14.4581 78.4843 11.7765 77.0766 10.1663 74.7121L-3.94021 84.3182ZM17.3709 95.5333H69.6289V78.4667H17.3709V95.5333ZM69.5767 95.5332C78.121 95.5854 86.1307 91.3806 90.94 84.3182L76.8335 74.7121C75.2233 77.0766 72.5417 78.4843 69.6811 78.4668L69.5767 95.5332ZM90.9053 84.3687C95.7528 77.3589 96.8528 68.4169 93.8488 60.4413L77.8774 66.4569C78.9075 69.1917 78.5303 72.2579 76.8682 74.6615L90.9053 84.3687ZM67.1454 23.4301C65.1707 24.323 63.1222 25.0431 61.0231 25.5823L65.2688 42.1124C68.3232 41.3279 71.3038 40.2801 74.1772 38.9808L67.1454 23.4301ZM71.2435 31.1552L69.9545 27.2779L53.7594 32.6622L55.0484 36.5395L71.2435 31.1552ZM69.9486 27.2605C70.7134 29.5445 70.2652 32.0607 68.7586 33.94L55.4424 23.2654C53.319 25.9142 52.6872 29.4605 53.7652 32.6796L69.9486 27.2605ZM68.7999 33.8881C67.8531 35.0883 66.5455 35.9522 65.0702 36.3525L60.6011 19.8814C58.5442 20.4395 56.7212 21.644 55.4011 23.3173L68.7999 33.8881ZM65.1883 36.3196L69.895 34.9696L65.1897 18.5644L60.483 19.9143L65.1883 36.3196ZM70.1164 34.9028C69.4615 35.11 68.7807 35.2235 68.0941 35.2399L67.6866 18.1781C66.7637 18.2001 65.8485 18.3527 64.9683 18.6312L70.1164 34.9028ZM68.1903 35.2371C65.1216 35.345 62.3303 33.4705 61.2691 30.5891L77.284 24.6907C75.7977 20.6551 71.8884 18.0298 67.5904 18.1809L68.1903 35.2371ZM61.322 30.7292L62.7068 34.2947L78.6158 28.1162L77.2311 24.5506L61.322 30.7292ZM18.9472 35.2405C18.3921 35.2289 17.8405 35.1495 17.3047 35.0042L21.7726 18.5327C20.9671 18.3142 20.138 18.195 19.3036 18.1775L18.9472 35.2405ZM17.1827 34.9701L21.9025 36.3259L26.6143 19.9225L21.8946 18.5668L17.1827 34.9701ZM22.0419 36.3647C20.4712 35.9422 19.0884 35.0031 18.1165 33.6989L31.801 23.5007C30.4823 21.7311 28.6061 20.457 26.4749 19.8837L22.0419 36.3647ZM18.515 34.1941C16.8293 32.2525 16.3152 29.5556 17.1684 27.13L33.2682 32.7927C34.4502 29.4321 33.738 25.6956 31.4025 23.0055L18.515 34.1941ZM17.1256 27.2548L15.8206 31.1567L32.006 36.5699L33.311 32.6679L17.1256 27.2548ZM26.031 25.5969C23.9302 25.0588 21.8797 24.3408 19.9021 23.451L12.8996 39.015C15.7701 40.3065 18.7464 41.3486 21.7956 42.1297L26.031 25.5969ZM24.3575 34.3167L25.7495 30.7251L9.83619 24.5576L8.44419 28.1493L24.3575 34.3167ZM25.7233 30.7919C24.683 33.4106 22.1841 35.159 19.3675 35.2389L18.8833 18.1791C14.8857 18.2926 11.339 20.7741 9.86241 24.4908L25.7233 30.7919ZM36.074 33.5604C37.1637 30.2577 36.8675 26.6543 35.2529 23.574L20.1369 31.497C19.6058 30.4839 19.5084 29.2988 19.8668 28.2125L36.074 33.5604ZM35.4793 31.0314C37.7488 25.9778 39.9841 22.5021 41.8611 20.4353C43.9172 18.1713 44.5021 18.6833 43.4999 18.6833V1.61667C37.3922 1.61667 32.5563 5.29547 29.2271 8.9613C25.7188 12.8242 22.6043 18.0413 19.9105 24.0396L35.4793 31.0314ZM43.4999 18.6833C42.4851 18.6833 43.0721 18.1647 45.1392 20.4478C47.0231 22.5285 49.265 26.0254 51.5369 31.1051L67.1164 24.137C64.4206 18.1097 61.3019 12.8711 57.7907 8.99305C54.4627 5.31737 49.6202 1.61667 43.4999 1.61667V18.6833ZM51.6605 23.8731C50.1866 26.8877 49.9487 30.3587 50.9975 33.5462L67.2092 28.2122C67.5515 29.2524 67.4738 30.3852 66.9928 31.369L51.6605 23.8731ZM51.005 33.569L52.2187 37.223L68.4153 31.8434L67.2017 28.1894L51.005 33.569ZM58.5444 26.186C53.6154 27.2327 48.5881 27.7459 43.5492 27.7168L43.4506 44.7832C49.7139 44.8194 55.9628 44.1814 62.0896 42.8804L58.5444 26.186ZM43.4514 27.7168C38.4296 27.7454 33.4192 27.2364 28.5057 26.1986L24.9788 42.8968C31.0836 44.1863 37.309 44.8187 43.5484 44.7832L43.4514 27.7168ZM34.8325 37.2616L36.0607 33.6003L19.8801 28.1726L18.652 31.8338L34.8325 37.2616ZM43.4999 11.4333C45.4245 11.4333 47.7706 12.42 50.6096 15.5335C53.448 18.6464 55.9725 23.0505 58.0506 27.7115L73.6382 20.762C71.2169 15.331 67.8095 9.06676 63.2206 4.03426C58.6323 -0.997668 52.0559 -5.63333 43.4999 -5.63333V11.4333ZM63.4923 16.034L59.6846 17.1258L64.3888 33.5314L68.1965 32.4395L63.4923 16.034ZM59.5219 17.1743C59.0507 17.3196 58.5881 17.4915 58.1363 17.6891L64.9772 33.3248C64.8384 33.3855 64.6962 33.4383 64.5515 33.4829L59.5219 17.1743ZM69.3067 21.9353C67.1574 17.2718 64.2075 11.875 60.4073 7.51438C56.7318 3.297 51.0703 -1.28333 43.4999 -1.28333V15.7833C43.7885 15.7833 45.1537 15.988 47.541 18.7274C49.8036 21.3235 51.9526 25.0552 53.8068 29.0786L69.3067 21.9353ZM43.4999 -1.28333C35.9339 -1.28333 30.2728 3.28952 26.5962 7.50231C22.7953 11.8575 19.8455 17.2467 17.6977 21.9012L33.1942 29.0518C35.0455 25.0396 37.1931 21.3156 39.4547 18.7242C41.8405 15.9904 43.2069 15.7833 43.4999 15.7833V-1.28333ZM28.7533 17.6101C28.3134 17.4252 27.8631 17.2661 27.4047 17.1336L22.6665 33.5294C22.487 33.4775 22.3108 33.4152 22.1386 33.3429L28.7533 17.6101ZM27.4034 17.1333L23.5377 16.0168L18.8021 32.4132L22.6678 33.5297L27.4034 17.1333ZM28.9639 27.6894C31.0393 23.0337 33.5613 18.6355 36.3968 15.5272C39.2324 12.4188 41.5763 11.4333 43.4999 11.4333V-5.63333C34.9487 -5.63333 28.3751 -1.00295 23.7882 4.02528C19.2011 9.0537 15.7955 15.313 13.3759 20.7406L28.9639 27.6894ZM74.4469 73.0639C73.3743 74.6399 71.5873 75.5784 69.6808 75.5668L69.577 92.6332C77.1686 92.6794 84.2847 88.9423 88.5561 82.6661L74.4469 73.0639ZM69.6289 75.5667H17.3709V92.6333H69.6289V75.5667ZM17.3953 75.5667C15.4385 75.5611 13.6087 74.5964 12.4987 72.9849L-1.55611 82.6665C2.72919 88.8875 9.79249 92.6117 17.3465 92.6333L17.3953 75.5667ZM12.4987 72.9849C11.3886 71.3734 11.1392 69.32 11.8314 67.4896L-4.13207 61.4531C-6.80397 68.5188 -5.84142 76.4456 -1.55611 82.6665L12.4987 72.9849ZM11.8333 67.4845L23.3535 36.9606L7.38625 30.9342L-4.134 61.4582L11.8333 67.4845ZM11.8395 41.7162C16.3591 43.7701 27.1435 47.6833 43.4999 47.6833V30.6167C29.9254 30.6167 21.5408 27.3786 18.9003 26.1786L11.8395 41.7162ZM43.4999 47.6833C59.8563 47.6833 70.6407 43.7701 75.1603 41.7162L68.0995 26.1786C65.459 27.3786 57.0744 30.6167 43.4999 30.6167V47.6833ZM63.6459 36.9596L75.1618 67.4835L91.1298 61.4592L79.6139 30.9352L63.6459 36.9596ZM75.1812 67.5345C75.8768 69.3432 75.6268 71.3795 74.5144 72.9663L88.4887 82.7637C92.8625 76.5253 93.8453 68.5194 91.1104 61.4082L75.1812 67.5345Z" fill="#353535" mask="url(#path-2-inside-1)"/>
<mask id="path-4-inside-2" fill="white">
<path d="M17.2332 45.4329L18.7441 41.4294C20.6552 42.0355 22.6707 42.5706 24.7529 43.0244C25.2645 43.1503 25.8041 42.9888 26.1624 42.6025C26.5207 42.2162 26.6413 41.666 26.4774 41.1653C26.3134 40.6646 25.8908 40.2922 25.3735 40.1926C22.996 39.6768 20.65 39.0256 18.3468 38.2423C17.6055 37.9892 16.7972 38.3706 16.5212 39.1036L14.5202 44.4077C14.2845 45.1445 14.6687 45.9365 15.3932 46.2076C16.1177 46.4787 16.9274 46.1333 17.2332 45.4227V45.4329Z"/>
</mask>
<path d="M17.2332 45.4329L18.7441 41.4294C20.6552 42.0355 22.6707 42.5706 24.7529 43.0244C25.2645 43.1503 25.8041 42.9888 26.1624 42.6025C26.5207 42.2162 26.6413 41.666 26.4774 41.1653C26.3134 40.6646 25.8908 40.2922 25.3735 40.1926C22.996 39.6768 20.65 39.0256 18.3468 38.2423C17.6055 37.9892 16.7972 38.3706 16.5212 39.1036L14.5202 44.4077C14.2845 45.1445 14.6687 45.9365 15.3932 46.2076C16.1177 46.4787 16.9274 46.1333 17.2332 45.4227V45.4329Z" fill="#353535"/>
<path d="M17.2332 45.4329H8.69982L25.2168 48.4459L17.2332 45.4329ZM18.7441 41.4294L21.3237 33.2954L13.6156 30.8508L10.7604 38.4164L18.7441 41.4294ZM24.7529 43.0244L26.7918 34.7383L26.6813 34.7111L26.5702 34.6869L24.7529 43.0244ZM26.1624 42.6025L19.9061 36.7993L19.9061 36.7993L26.1624 42.6025ZM26.4774 41.1653L34.5872 38.5104V38.5104L26.4774 41.1653ZM25.3735 40.1926L23.5642 48.5319L23.6619 48.5531L23.7601 48.572L25.3735 40.1926ZM18.3468 38.2423L15.5894 46.3179L15.5991 46.3212L18.3468 38.2423ZM16.5212 39.1036L24.5053 42.1157L24.5073 42.1104L16.5212 39.1036ZM14.5202 44.4077L6.53613 41.3957L6.45911 41.5998L6.39263 41.8077L14.5202 44.4077ZM15.3932 46.2076L12.403 54.1999H12.403L15.3932 46.2076ZM17.2332 45.4227H25.7665L9.39486 42.0495L17.2332 45.4227ZM25.2168 48.4459L26.7277 44.4425L10.7604 38.4164L9.24946 42.4198L25.2168 48.4459ZM16.1644 49.5635C18.3412 50.2539 20.612 50.8555 22.9355 51.362L26.5702 34.6869C24.7293 34.2856 22.9691 33.8172 21.3237 33.2954L16.1644 49.5635ZM22.7139 51.3106C26.2363 52.1773 29.9517 51.0652 32.4186 48.4057L19.9061 36.7993C21.6565 34.9123 24.2926 34.1233 26.7918 34.7383L22.7139 51.3106ZM32.4186 48.4057C34.8855 45.7462 35.7158 41.9579 34.5872 38.5104L18.3675 43.8202C17.5668 41.3741 18.1558 38.6863 19.9061 36.7993L32.4186 48.4057ZM34.5872 38.5104C33.4586 35.063 30.5489 32.499 26.9868 31.8131L23.7601 48.572C21.2328 48.0854 19.1683 46.2662 18.3675 43.8202L34.5872 38.5104ZM27.1827 31.8532C25.1227 31.4063 23.09 30.8421 21.0944 30.1634L15.5991 46.3212C18.2099 47.2091 20.8693 47.9472 23.5642 48.5319L27.1827 31.8532ZM21.1042 30.1668C16.0005 28.4241 10.4354 31.0498 8.53514 36.0969L24.5073 42.1104C23.159 45.6914 19.2105 47.5543 15.5894 46.3179L21.1042 30.1668ZM8.53713 36.0916L6.53613 41.3957L22.5043 47.4198L24.5053 42.1157L8.53713 36.0916ZM6.39263 41.8077C4.76985 46.8803 7.41476 52.3336 12.403 54.1999L18.3833 38.2153C21.9226 39.5394 23.7992 43.4087 22.6478 47.0078L6.39263 41.8077ZM12.403 54.1999C17.3912 56.0661 22.9661 53.6881 25.0715 48.796L9.39486 42.0495C10.8886 38.5784 14.8441 36.8912 18.3833 38.2153L12.403 54.1999ZM8.69982 45.4227V45.4329H25.7665V45.4227H8.69982Z" fill="#353535" mask="url(#path-4-inside-2)"/>
<path d="M42.5 58C37.3 50.8 30 49.6666 27 50L20.5 52.5C20 52.8333 18.2 55.2 15 62C17.5 81.5 32 76.5 35 76C37.4 75.6 41.3333 70.5 43 68L47.5 72.5C48 73.3333 51 75.4 59 77C67 78.6 70.6667 69.6667 71.5 65V62C70.8333 58.5 67.6 51.2 60 50C52.4 48.8 46.1667 55.5 44 59C43.8333 59 43.3 58.8 42.5 58Z" fill="#396BEB"/>
<path d="M30 55.5C27.2 54.7 24.8333 55.8333 24 56.5L21.5 59.5C17.5 65 24 72 28.5 72C32 72 39.5 65 40 63.5C40.5 62 33.5 56.5 30 55.5Z" fill="white"/>
<path d="M57.0254 55.5C59.8254 54.7 62.1921 55.8333 63.0254 56.5L65.5254 59.5C69.5254 65 63.0254 72 58.5254 72C55.0254 72 47.5254 65 47.0254 63.5C46.5254 62 53.5254 56.5 57.0254 55.5Z" fill="white"/>
</g>
<path d="M72.0134 64.5124C71.5436 64.4482 71.1112 64.7771 71.0471 65.2467C70.6329 68.2797 69.132 71.0697 66.8205 73.1026C64.4883 75.1539 61.4915 76.2835 58.3818 76.2835C56.6899 76.2835 55.0466 75.9585 53.4974 75.3174C53.4717 75.3068 53.442 75.2964 53.4152 75.2883C53.3971 75.2828 51.5689 74.7117 48.8469 72.5509C48.4756 72.2562 47.9358 72.3183 47.6411 72.6895C47.3465 73.0608 47.4085 73.6006 47.7797 73.8953C50.5723 76.1119 52.5342 76.8074 52.8763 76.9179C54.6242 77.6358 56.4762 77.9999 58.3818 77.9999C61.9089 77.9999 65.3084 76.7184 67.9541 74.3915C70.5753 72.0861 72.2777 68.9209 72.7477 65.479C72.8117 65.0092 72.483 64.5765 72.0134 64.5124Z" fill="#353535" stroke="#353535"/>
<path d="M51.3591 69.4402C53.1805 71.0639 55.4458 72.7237 58.4395 72.7236H58.4425C63.5265 72.7216 67.6625 68.584 67.6625 63.4999C67.6625 58.414 63.5249 54.2763 58.4389 54.2763C58.439 54.2763 58.4387 54.2763 58.4389 54.2763C54.9323 54.2763 52.5417 56.3126 50.8512 58.0864C48.3774 60.6822 42.7674 67.3382 42.5636 67.5962C37.1849 74.4035 33.9905 75.2232 33.8156 75.2633C33.7427 75.2728 33.6983 75.2883 33.6285 75.3172C32.2467 75.889 30.7834 76.2104 29.2797 76.2722L28.7354 76.2832C25.3065 76.2809 22.0878 74.9396 19.6717 72.5058C17.2538 70.0701 15.9359 66.8378 15.961 63.4041C15.9858 59.9996 17.3469 56.8003 19.7934 54.3958C22.2107 52.0199 25.3848 50.7163 28.7449 50.7163C28.7879 50.7163 28.8313 50.7165 28.8743 50.7168C30.4643 50.7327 32.013 51.0368 33.4777 51.621C33.5681 51.657 33.6585 51.6925 33.7497 51.7266C34.1964 51.8937 38.1343 53.4843 42.5669 59.111C42.5669 59.111 40.6624 61.4369 40.2219 61.9599C39.3579 61.0185 37.7298 59.3092 35.7671 57.5595C33.9457 55.9358 31.6805 54.2761 28.6869 54.2761C28.686 54.2761 28.6847 54.2761 28.6839 54.2761C28.3778 54.2761 28.0687 54.2914 27.7653 54.3216C27.2936 54.3686 26.9493 54.7888 26.9962 55.2604C27.043 55.732 27.4643 56.0759 27.935 56.0295C28.1824 56.0049 28.4344 55.9924 28.6843 55.9924H28.6875C30.0443 55.9924 31.8108 56.3318 34.625 58.8405C36.6255 60.624 38.3018 62.4028 39.097 63.2742C37.84 64.7202 36.4942 66.1951 35.0325 67.7288C32.872 69.9958 30.9151 71.0069 28.6872 71.0069C24.5477 71.0069 21.1799 67.639 21.1799 63.4996C21.1799 60.9832 22.4317 58.6463 24.5285 57.2482C24.9229 56.9852 25.0294 56.4525 24.7664 56.0581C24.5036 55.6638 23.9708 55.5573 23.5763 55.8201C21.001 57.5377 19.4635 60.4085 19.4635 63.4999C19.4635 68.5857 23.6011 72.7235 28.6871 72.7236C32.194 72.7236 34.5843 70.6873 36.2748 68.9134C38.7485 66.3176 44.7151 59.2108 44.7151 59.2108C44.7188 59.2065 44.7223 59.202 44.7258 59.1977C50.0059 52.5787 53.1377 51.776 53.3104 51.7363C53.3833 51.727 53.4276 51.7114 53.4974 51.6825C54.8793 51.1106 56.3425 50.7893 57.8463 50.7274L58.3904 50.7164C61.4529 50.7184 64.4143 51.8198 66.7297 53.8181C69.0238 55.7979 70.5441 58.5272 71.0106 61.5034C71.0839 61.9716 71.523 62.2914 71.9913 62.2184C72.4595 62.1449 72.7796 61.7058 72.7062 61.2376C72.1768 57.8603 70.4526 54.764 67.8512 52.5188C65.222 50.2498 61.8592 49.0001 58.382 49.0001C58.3763 49.0001 58.3705 49.0001 58.3646 49.0002L57.8027 49.0115C57.7969 49.0117 57.7911 49.0118 57.7852 49.0121C56.1046 49.0802 54.4683 49.4342 52.9199 50.0643C52.2018 50.2243 48.9413 51.2762 43.6826 57.7566C39.1588 52.1252 35.1412 50.4148 34.3507 50.1193C34.2709 50.0894 34.1917 50.0584 34.113 50.0269C32.4509 49.364 30.694 49.0187 28.8912 49.0008C25.0213 48.9604 21.3659 50.4436 18.5902 53.1718C15.8161 55.8985 14.2728 59.5281 14.2445 63.3919C14.2162 67.2863 15.7109 70.9525 18.4535 73.7152C21.1963 76.4781 24.8509 77.9998 28.744 77.9998C28.7497 77.9998 28.7555 77.9998 28.7613 77.9997L29.3233 77.9883C29.3291 77.9882 29.3349 77.9881 29.3407 77.9878C31.0212 77.9197 32.6577 77.5657 34.206 76.9356C34.9153 76.7778 38.0971 75.7519 43.2299 69.5046C43.7204 70.0651 44.218 70.6046 44.7158 71.1142C45.047 71.4531 45.5903 71.4595 45.9293 71.1284C46.2684 70.7973 46.2748 70.254 45.9436 69.9149C45.4033 69.3618 44.8624 68.7716 44.3311 68.156C44.7818 67.6122 46.4635 65.5627 46.9041 65.0395C47.7679 65.9806 49.3965 67.6904 51.3591 69.4402ZM52.0936 59.2706C54.2541 57.0035 56.211 55.9926 58.4389 55.9927C62.5784 55.9927 65.9462 59.3604 65.9462 63.5C65.9462 67.638 62.5798 71.0057 58.4418 71.0073C58.4408 71.0073 58.4398 71.0073 58.4388 71.0073C57.0821 71.0073 55.3153 70.6679 52.5011 68.1591C50.5002 66.3752 48.8238 64.5961 48.029 63.7248C49.2859 62.2791 50.6321 60.8041 52.0936 59.2706Z" fill="#353535"/>
<path d="M58.4389 54.2763C63.5249 54.2763 67.6625 58.414 67.6625 63.4999C67.6625 68.584 63.5265 72.7216 58.4425 72.7236H58.4395C55.4458 72.7237 53.1805 71.0639 51.3591 69.4402C49.3965 67.6904 47.7679 65.9806 46.9041 65.0395C46.4635 65.5627 44.7818 67.6122 44.3311 68.156C44.8624 68.7716 45.4033 69.3618 45.9436 69.9149C46.2748 70.254 46.2684 70.7973 45.9293 71.1284C45.5903 71.4595 45.047 71.4531 44.7158 71.1142C44.218 70.6046 43.7204 70.0651 43.2299 69.5046C38.0971 75.7519 34.9153 76.7778 34.206 76.9356C32.6577 77.5657 31.0212 77.9197 29.3407 77.9878C29.3349 77.9881 29.3291 77.9882 29.3233 77.9883L28.7613 77.9997C28.7555 77.9998 28.7497 77.9998 28.744 77.9998C24.8509 77.9998 21.1963 76.4781 18.4535 73.7152C15.7109 70.9525 14.2162 67.2863 14.2445 63.3919C14.2728 59.5281 15.8161 55.8985 18.5902 53.1718C21.3659 50.4436 25.0213 48.9604 28.8912 49.0008C30.6941 49.0187 32.4509 49.364 34.113 50.0269C34.1917 50.0584 34.2709 50.0894 34.3507 50.1193C35.1412 50.4148 39.1588 52.1252 43.6826 57.7566C48.9413 51.2762 52.2018 50.2243 52.9199 50.0643C54.4683 49.4342 56.1046 49.0802 57.7852 49.0121C57.7911 49.0118 57.7969 49.0117 57.8027 49.0115L58.3646 49.0002C58.3705 49.0001 58.3763 49.0001 58.382 49.0001C61.8592 49.0001 65.222 50.2498 67.8512 52.5188C70.4526 54.764 72.1768 57.8603 72.7062 61.2376C72.7796 61.7058 72.4595 62.1449 71.9913 62.2184C71.523 62.2914 71.0839 61.9716 71.0106 61.5034C70.5441 58.5272 69.0238 55.7979 66.7297 53.8181C64.4143 51.8198 61.453 50.7184 58.3904 50.7164L57.8463 50.7274C56.3425 50.7893 54.8793 51.1106 53.4974 51.6825C53.4276 51.7114 53.3833 51.727 53.3104 51.7363C53.1377 51.776 50.0059 52.5787 44.7258 59.1977C44.7223 59.202 44.7188 59.2065 44.7151 59.2108C44.7151 59.2108 38.7485 66.3176 36.2748 68.9134C34.5843 70.6873 32.194 72.7236 28.6871 72.7236C23.6011 72.7235 19.4635 68.5857 19.4635 63.4999C19.4635 60.4085 21.001 57.5377 23.5763 55.8201C23.9708 55.5573 24.5036 55.6638 24.7664 56.0581C25.0294 56.4525 24.9229 56.9852 24.5285 57.2482C22.4317 58.6463 21.1799 60.9832 21.1799 63.4996C21.1799 67.639 24.5477 71.0069 28.6872 71.0069C30.9151 71.0069 32.872 69.9958 35.0325 67.7288C36.4942 66.1951 37.84 64.7202 39.097 63.2742C38.3018 62.4028 36.6255 60.624 34.625 58.8405C31.8108 56.3318 30.0443 55.9924 28.6875 55.9924H28.6843C28.4344 55.9924 28.1824 56.0049 27.935 56.0295C27.4643 56.0759 27.043 55.732 26.9962 55.2604C26.9493 54.7888 27.2936 54.3686 27.7653 54.3216C28.0687 54.2914 28.3778 54.2761 28.6839 54.2761C28.6847 54.2761 28.686 54.2761 28.6869 54.2761C31.6805 54.2761 33.9457 55.9358 35.7671 57.5595C37.7298 59.3092 39.3579 61.0185 40.2219 61.9599C40.6624 61.4369 42.5669 59.111 42.5669 59.111C38.1343 53.4843 34.1964 51.8937 33.7497 51.7266C33.6585 51.6925 33.5681 51.657 33.4777 51.621C32.013 51.0368 30.4643 50.7327 28.8743 50.7168C28.8313 50.7165 28.7879 50.7163 28.7449 50.7163C25.3848 50.7163 22.2107 52.0199 19.7934 54.3958C17.3469 56.8003 15.9858 59.9996 15.961 63.4041C15.9359 66.8378 17.2538 70.0701 19.6717 72.5058C22.0878 74.9396 25.3065 76.2809 28.7354 76.2832L29.2797 76.2722C30.7834 76.2104 32.2467 75.889 33.6285 75.3172C33.6983 75.2883 33.7427 75.2728 33.8156 75.2633C33.9905 75.2232 37.1849 74.4035 42.5636 67.5962C42.7674 67.3382 48.3774 60.6822 50.8512 58.0864C52.5417 56.3126 54.9323 54.2763 58.4389 54.2763ZM58.4389 54.2763C58.4387 54.2763 58.439 54.2763 58.4389 54.2763ZM52.0936 59.2706C54.2541 57.0035 56.211 55.9926 58.4389 55.9927C62.5784 55.9927 65.9462 59.3604 65.9462 63.5C65.9462 67.638 62.5798 71.0057 58.4418 71.0073C58.4408 71.0073 58.4398 71.0073 58.4388 71.0073C57.0821 71.0073 55.3153 70.6679 52.5011 68.1591C50.5002 66.3752 48.8238 64.5961 48.029 63.7248C49.2859 62.2791 50.6321 60.8041 52.0936 59.2706Z" stroke="#353535"/>
<defs>
<clipPath id="clip0">
<rect width="87" height="87" fill="white"/>
</clipPath>
</defs>
</svg>
