<svg width="18" height="18" viewBox="0 0 18 18" fill="none" xmlns="http://www.w3.org/2000/svg">
<path fill-rule="evenodd" clip-rule="evenodd" d="M15.6275 11.9884L13.2992 11.7226C12.74 11.6584 12.19 11.8509 11.7959 12.2451L10.1092 13.9318C7.51504 12.6118 5.38837 10.4943 4.06837 7.89094L5.7642 6.19511C6.15837 5.80094 6.35087 5.25094 6.2867 4.69178L6.02087 2.38178C5.91087 1.45594 5.1317 0.759277 4.1967 0.759277H2.61087C1.57504 0.759277 0.713371 1.62094 0.777537 2.65678C1.26337 10.4851 7.5242 16.7368 15.3434 17.2226C16.3792 17.2868 17.2409 16.4251 17.2409 15.3893V13.8034C17.25 12.8776 16.5534 12.0984 15.6275 11.9884Z" fill="white"/>
</svg>
