<svg width="120" height="120" viewBox="0 0 120 120" fill="none" xmlns="http://www.w3.org/2000/svg">
<circle cx="60" cy="60" r="59" stroke="black" stroke-width="2"/>
<circle cx="60" cy="60" r="53" stroke="black" stroke-width="2"/>
<path d="M44.1523 66.7383H39.875V63H28.9062V66.7383H24.6406V59.0391H26.4102C27.4023 56.2656 27.8984 53.1367 27.8984 49.6523V45.8203H42.3008V59.0391H44.1523V66.7383ZM36.9922 59.0391V50.0391H32.7266V50.2617C32.7266 52.6367 32.3242 55.5625 31.5195 59.0391H36.9922ZM57.6758 55.9805L62.3281 57.3867C62.0156 58.6914 61.5234 59.7812 60.8516 60.6562C60.1797 61.5312 59.3438 62.1914 58.3438 62.6367C57.3516 63.082 56.0859 63.3047 54.5469 63.3047C52.6797 63.3047 51.1523 63.0352 49.9648 62.4961C48.7852 61.9492 47.7656 60.9922 46.9062 59.625C46.0469 58.2578 45.6172 56.5078 45.6172 54.375C45.6172 51.5312 46.3711 49.3477 47.8789 47.8242C49.3945 46.293 51.5352 45.5273 54.3008 45.5273C56.4648 45.5273 58.1641 45.9648 59.3984 46.8398C60.6406 47.7148 61.5625 49.0586 62.1641 50.8711L57.4766 51.9141C57.3125 51.3906 57.1406 51.0078 56.9609 50.7656C56.6641 50.3594 56.3008 50.0469 55.8711 49.8281C55.4414 49.6094 54.9609 49.5 54.4297 49.5C53.2266 49.5 52.3047 49.9844 51.6641 50.9531C51.1797 51.6719 50.9375 52.8008 50.9375 54.3398C50.9375 56.2461 51.2266 57.5547 51.8047 58.2656C52.3828 58.9688 53.1953 59.3203 54.2422 59.3203C55.2578 59.3203 56.0234 59.0352 56.5391 58.4648C57.0625 57.8945 57.4414 57.0664 57.6758 55.9805ZM63.7109 45.8203H79.8477V50.0625H74.4336V63H69.125V50.0625H63.7109V45.8203ZM80.6445 45.8203H86.4102L88.7891 52.8984L91.1328 45.8203H96.5352L90.8984 59.0859C90.4375 60.1562 90.0352 60.957 89.6914 61.4883C89.3477 62.0117 88.8359 62.4453 88.1562 62.7891C87.4844 63.125 86.5586 63.293 85.3789 63.293C84.7539 63.293 83.6797 63.2031 82.1562 63.0234V59.4727C83.0547 59.5664 83.7109 59.6133 84.125 59.6133C85.3516 59.6133 86.0977 59.1562 86.3633 58.2422L80.6445 45.8203ZM25.1281 76.0137L26.7219 75.8379C26.7609 76.1621 26.8625 76.4023 27.0266 76.5586C27.1906 76.7148 27.4074 76.793 27.677 76.793C28.0168 76.793 28.3059 76.6367 28.5441 76.3242C28.7824 76.0117 28.9348 75.3633 29.0012 74.3789C28.5871 74.8594 28.0695 75.0996 27.4484 75.0996C26.7727 75.0996 26.1887 74.8398 25.6965 74.3203C25.2082 73.7969 24.9641 73.1172 24.9641 72.2812C24.9641 71.4102 25.2219 70.709 25.7375 70.1777C26.257 69.6426 26.9172 69.375 27.718 69.375C28.5891 69.375 29.3039 69.7129 29.8625 70.3887C30.4211 71.0605 30.7004 72.168 30.7004 73.7109C30.7004 75.2812 30.4094 76.4141 29.8273 77.1094C29.2453 77.8047 28.4875 78.1523 27.5539 78.1523C26.882 78.1523 26.3391 77.9746 25.925 77.6191C25.5109 77.2598 25.2453 76.7246 25.1281 76.0137ZM28.8547 72.416C28.8547 71.8848 28.7316 71.4727 28.4855 71.1797C28.2434 70.8867 27.9621 70.7402 27.6418 70.7402C27.3371 70.7402 27.0832 70.8613 26.8801 71.1035C26.6809 71.3418 26.5812 71.7344 26.5812 72.2812C26.5812 72.8359 26.6906 73.2441 26.9094 73.5059C27.1281 73.7637 27.4016 73.8926 27.7297 73.8926C28.0461 73.8926 28.3117 73.7676 28.5266 73.5176C28.7453 73.2676 28.8547 72.9004 28.8547 72.416ZM37.7855 78H36.1391V71.7949C35.5375 72.3574 34.8285 72.7734 34.0121 73.043V71.5488C34.4418 71.4082 34.9086 71.1426 35.4125 70.752C35.9164 70.3574 36.2621 69.8984 36.4496 69.375H37.7855V78ZM45.2809 78V76.2715H41.7652V74.8301L45.4918 69.375H46.8746V74.8242H47.941V76.2715H46.8746V78H45.2809ZM45.2809 74.8242V71.8887L43.3062 74.8242H45.2809ZM56.0926 76.4707V78H50.3211C50.3836 77.4219 50.5711 76.875 50.8836 76.3594C51.1961 75.8398 51.8133 75.1523 52.7352 74.2969C53.4773 73.6055 53.9324 73.1367 54.1004 72.8906C54.327 72.5508 54.4402 72.2148 54.4402 71.8828C54.4402 71.5156 54.3406 71.2344 54.1414 71.0391C53.9461 70.8398 53.6746 70.7402 53.327 70.7402C52.9832 70.7402 52.7098 70.8438 52.5066 71.0508C52.3035 71.2578 52.1863 71.6016 52.1551 72.082L50.5145 71.918C50.6121 71.0117 50.9187 70.3613 51.4344 69.9668C51.95 69.5723 52.5945 69.375 53.368 69.375C54.2156 69.375 54.8816 69.6035 55.366 70.0605C55.8504 70.5176 56.0926 71.0859 56.0926 71.7656C56.0926 72.1523 56.0223 72.5215 55.8816 72.873C55.7449 73.2207 55.5262 73.5859 55.2254 73.9688C55.0262 74.2227 54.6668 74.5879 54.1473 75.0645C53.6277 75.541 53.2977 75.8574 53.157 76.0137C53.0203 76.1699 52.909 76.3223 52.823 76.4707H56.0926ZM59.6797 73.4238V71.7773H61.3262V73.4238H59.6797ZM59.6797 78V76.3535H61.3262V78H59.6797ZM70.3684 76.4707V78H64.5969C64.6594 77.4219 64.8469 76.875 65.1594 76.3594C65.4719 75.8398 66.0891 75.1523 67.0109 74.2969C67.7531 73.6055 68.2082 73.1367 68.3762 72.8906C68.6027 72.5508 68.716 72.2148 68.716 71.8828C68.716 71.5156 68.6164 71.2344 68.4172 71.0391C68.2219 70.8398 67.9504 70.7402 67.6027 70.7402C67.259 70.7402 66.9855 70.8438 66.7824 71.0508C66.5793 71.2578 66.4621 71.6016 66.4309 72.082L64.7902 71.918C64.8879 71.0117 65.1945 70.3613 65.7102 69.9668C66.2258 69.5723 66.8703 69.375 67.6437 69.375C68.4914 69.375 69.1574 69.6035 69.6418 70.0605C70.1262 70.5176 70.3684 71.0859 70.3684 71.7656C70.3684 72.1523 70.298 72.5215 70.1574 72.873C70.0207 73.2207 69.802 73.5859 69.5012 73.9688C69.302 74.2227 68.9426 74.5879 68.423 75.0645C67.9035 75.541 67.5734 75.8574 67.4328 76.0137C67.2961 76.1699 67.1848 76.3223 67.0988 76.4707H70.3684ZM76.0707 69.375C76.9027 69.375 77.5531 69.6719 78.0219 70.2656C78.5805 70.9688 78.8598 72.1348 78.8598 73.7637C78.8598 75.3887 78.5785 76.5566 78.016 77.2676C77.5512 77.8535 76.9027 78.1465 76.0707 78.1465C75.2348 78.1465 74.5609 77.8262 74.0492 77.1855C73.5375 76.541 73.2816 75.3945 73.2816 73.7461C73.2816 72.1289 73.5629 70.9648 74.1254 70.2539C74.5902 69.668 75.2387 69.375 76.0707 69.375ZM76.0707 70.7402C75.8715 70.7402 75.6937 70.8047 75.5375 70.9336C75.3812 71.0586 75.2602 71.2852 75.1742 71.6133C75.0609 72.0391 75.0043 72.7559 75.0043 73.7637C75.0043 74.7715 75.0551 75.4648 75.1566 75.8438C75.2582 76.2188 75.3852 76.4688 75.5375 76.5938C75.6937 76.7188 75.8715 76.7812 76.0707 76.7812C76.2699 76.7812 76.4477 76.7188 76.6039 76.5938C76.7602 76.4648 76.8812 76.2363 76.9672 75.9082C77.0805 75.4863 77.1371 74.7715 77.1371 73.7637C77.1371 72.7559 77.0863 72.0645 76.9848 71.6895C76.8832 71.3105 76.7543 71.0586 76.598 70.9336C76.4457 70.8047 76.2699 70.7402 76.0707 70.7402ZM85.9801 78H84.3336V71.7949C83.732 72.3574 83.023 72.7734 82.2066 73.043V71.5488C82.6363 71.4082 83.1031 71.1426 83.607 70.752C84.1109 70.3574 84.4566 69.8984 84.6441 69.375H85.9801V78ZM90.282 76.0137L91.8758 75.8379C91.9148 76.1621 92.0164 76.4023 92.1805 76.5586C92.3445 76.7148 92.5613 76.793 92.8309 76.793C93.1707 76.793 93.4598 76.6367 93.698 76.3242C93.9363 76.0117 94.0887 75.3633 94.1551 74.3789C93.741 74.8594 93.2234 75.0996 92.6023 75.0996C91.9266 75.0996 91.3426 74.8398 90.8504 74.3203C90.3621 73.7969 90.118 73.1172 90.118 72.2812C90.118 71.4102 90.3758 70.709 90.8914 70.1777C91.4109 69.6426 92.0711 69.375 92.8719 69.375C93.743 69.375 94.4578 69.7129 95.0164 70.3887C95.575 71.0605 95.8543 72.168 95.8543 73.7109C95.8543 75.2812 95.5633 76.4141 94.9812 77.1094C94.3992 77.8047 93.6414 78.1523 92.7078 78.1523C92.0359 78.1523 91.493 77.9746 91.0789 77.6191C90.6648 77.2598 90.3992 76.7246 90.282 76.0137ZM94.0086 72.416C94.0086 71.8848 93.8855 71.4727 93.6395 71.1797C93.3973 70.8867 93.116 70.7402 92.7957 70.7402C92.491 70.7402 92.2371 70.8613 92.034 71.1035C91.8348 71.3418 91.7352 71.7344 91.7352 72.2812C91.7352 72.8359 91.8445 73.2441 92.0633 73.5059C92.282 73.7637 92.5555 73.8926 92.8836 73.8926C93.2 73.8926 93.4656 73.7676 93.6805 73.5176C93.8992 73.2676 94.0086 72.9004 94.0086 72.416Z" fill="black"/>
</svg>
