<svg width="17" height="17" viewBox="0 0 17 17" fill="none" xmlns="http://www.w3.org/2000/svg">
<path fill-rule="evenodd" clip-rule="evenodd" d="M12.2083 10.8334H11.4841L11.2275 10.5859C12.3275 9.30258 12.8958 7.55175 12.5841 5.69092C12.1533 3.14259 10.0266 1.10759 7.45996 0.795919C3.58246 0.319252 0.31913 3.58259 0.795796 7.46009C1.10746 10.0268 3.14246 12.1534 5.6908 12.5843C7.55163 12.8959 9.30246 12.3276 10.5858 11.2276L10.8333 11.4843V12.2084L14.7291 16.1043C15.105 16.4801 15.7191 16.4801 16.095 16.1043C16.4708 15.7284 16.4708 15.1143 16.095 14.7384L12.2083 10.8334ZM6.70838 10.8334C4.42588 10.8334 2.58338 8.99092 2.58338 6.70842C2.58338 4.42592 4.42588 2.58342 6.70838 2.58342C8.99088 2.58342 10.8334 4.42592 10.8334 6.70842C10.8334 8.99092 8.99088 10.8334 6.70838 10.8334Z" fill="white"/>
</svg>
