<svg width="17" height="17" viewBox="0 0 17 17" fill="none" xmlns="http://www.w3.org/2000/svg">
<path d="M8.29688 3.01636H10.6301C10.9051 3.01636 11.1281 2.79337 11.1281 2.51831C11.1281 2.24326 10.9051 2.02026 10.6301 2.02026H8.29688C8.02182 2.02026 7.79883 2.24326 7.79883 2.51831C7.79883 2.79337 8.02179 3.01636 8.29688 3.01636Z" fill="#396BEB"/>
<path d="M8.29688 5.01324H12.9194C13.1945 5.01324 13.4175 4.79025 13.4175 4.5152C13.4175 4.24014 13.1945 4.01715 12.9194 4.01715H8.29688C8.02182 4.01715 7.79883 4.24014 7.79883 4.5152C7.79883 4.79025 8.02179 5.01324 8.29688 5.01324Z" fill="#396BEB"/>
<path d="M15.5391 6.57777V0.920191C15.5391 0.412814 15.1262 0 14.6189 0H6.59793C6.09055 0 5.67773 0.412814 5.67773 0.920191V6.57777C5.30211 6.65434 4.96838 6.84685 4.71484 7.11576C4.38162 6.76231 3.90967 6.54102 3.38672 6.54102H1.82617C0.819221 6.54102 0 7.36024 0 8.36719V15.1738C0 16.1808 0.819221 17 1.82617 17H3.38672C3.90967 17 4.38162 16.7787 4.71484 16.4253C5.04807 16.7787 5.52002 17 6.04297 17H15.1738C16.1808 17 17 16.1808 17 15.1738V8.36719C17 7.48528 16.3716 6.74744 15.5391 6.57777ZM14.543 0.996094V6.54102H6.67383V0.996094H14.543ZM4.2168 15.1738C4.2168 15.6315 3.84442 16.0039 3.38672 16.0039H1.82617C1.36847 16.0039 0.996094 15.6315 0.996094 15.1738V8.36719C0.996094 7.90948 1.36847 7.53711 1.82617 7.53711H3.38672C3.84442 7.53711 4.2168 7.90948 4.2168 8.36719V15.1738ZM16.0039 15.1738C16.0039 15.6315 15.6315 16.0039 15.1738 16.0039H6.04297C5.58526 16.0039 5.21289 15.6315 5.21289 15.1738V8.36719C5.21289 7.90948 5.58526 7.53711 6.04297 7.53711H15.1738C15.6315 7.53711 16.0039 7.90948 16.0039 8.36719V15.1738Z" fill="#396BEB"/>
<path d="M8.28418 9.28027H7.62012C7.34506 9.28027 7.12207 9.50327 7.12207 9.77832C7.12207 10.0534 7.34506 10.2764 7.62012 10.2764H8.28418C8.55923 10.2764 8.78223 10.0534 8.78223 9.77832C8.78223 9.50327 8.55923 9.28027 8.28418 9.28027Z" fill="#396BEB"/>
<path d="M10.9404 9.28027H10.2764C10.0013 9.28027 9.77832 9.50327 9.77832 9.77832C9.77832 10.0534 10.0013 10.2764 10.2764 10.2764H10.9404C11.2155 10.2764 11.4385 10.0534 11.4385 9.77832C11.4385 9.50327 11.2155 9.28027 10.9404 9.28027Z" fill="#396BEB"/>
<path d="M13.5967 9.28027H12.9326C12.6576 9.28027 12.4346 9.50327 12.4346 9.77832C12.4346 10.0534 12.6576 10.2764 12.9326 10.2764H13.5967C13.8717 10.2764 14.0947 10.0534 14.0947 9.77832C14.0947 9.50327 13.8717 9.28027 13.5967 9.28027Z" fill="#396BEB"/>
<path d="M8.28418 11.2725H7.62012C7.34506 11.2725 7.12207 11.4955 7.12207 11.7705C7.12207 12.0456 7.34506 12.2686 7.62012 12.2686H8.28418C8.55923 12.2686 8.78223 12.0456 8.78223 11.7705C8.78223 11.4955 8.55923 11.2725 8.28418 11.2725Z" fill="#396BEB"/>
<path d="M10.9404 11.2725H10.2764C10.0013 11.2725 9.77832 11.4955 9.77832 11.7705C9.77832 12.0456 10.0013 12.2686 10.2764 12.2686H10.9404C11.2155 12.2686 11.4385 12.0456 11.4385 11.7705C11.4385 11.4955 11.2155 11.2725 10.9404 11.2725Z" fill="#396BEB"/>
<path d="M13.5967 11.2725H12.9326C12.6576 11.2725 12.4346 11.4955 12.4346 11.7705C12.4346 12.0456 12.6576 12.2686 12.9326 12.2686H13.5967C13.8717 12.2686 14.0947 12.0456 14.0947 11.7705C14.0947 11.4955 13.8717 11.2725 13.5967 11.2725Z" fill="#396BEB"/>
<path d="M8.28418 13.2646H7.62012C7.34506 13.2646 7.12207 13.4876 7.12207 13.7627C7.12207 14.0378 7.34506 14.2607 7.62012 14.2607H8.28418C8.55923 14.2607 8.78223 14.0378 8.78223 13.7627C8.78223 13.4876 8.55923 13.2646 8.28418 13.2646Z" fill="#396BEB"/>
<path d="M10.9404 13.2646H10.2764C10.0013 13.2646 9.77832 13.4876 9.77832 13.7627C9.77832 14.0378 10.0013 14.2607 10.2764 14.2607H10.9404C11.2155 14.2607 11.4385 14.0378 11.4385 13.7627C11.4385 13.4876 11.2155 13.2646 10.9404 13.2646Z" fill="#396BEB"/>
<path d="M13.5967 13.2646H12.9326C12.6576 13.2646 12.4346 13.4876 12.4346 13.7627C12.4346 14.0378 12.6576 14.2607 12.9326 14.2607H13.5967C13.8717 14.2607 14.0947 14.0378 14.0947 13.7627C14.0947 13.4876 13.8717 13.2646 13.5967 13.2646Z" fill="#396BEB"/>
</svg>
