<svg width="154" height="22" viewBox="0 0 154 22" fill="none" xmlns="http://www.w3.org/2000/svg">
<g opacity="0.56" clip-path="url(#clip0)">
<path d="M0 19.7223H18.6142L17.5444 21.2148H0V19.7223Z" fill="white"/>
<path d="M153.513 21.2148H130.727L131.904 19.7223H153.62V21.2148H153.513Z" fill="white"/>
<path d="M0 16.9506H20.7537L19.577 18.4431H0V16.9506Z" fill="white"/>
<path d="M0 14.1787H22.8933L21.7166 15.6712H0V14.1787Z" fill="white"/>
<path d="M153.514 18.4431H132.867L134.044 16.9506H153.621V18.4431H153.514Z" fill="white"/>
<path d="M136.076 14.1787H153.514V15.6712H134.899L136.076 14.1787Z" fill="white"/>
<path d="M20.1118 21.2148L29.9538 8.10217C29.9538 8.10217 40.8656 8.10217 42.1493 8.10217C43.54 8.10217 43.54 8.63521 42.7912 9.48806C42.1493 10.3409 40.9725 11.94 40.3307 12.7929C40.0097 13.3259 39.3679 14.0721 41.4005 14.0721C43.647 14.0721 57.7681 14.0721 57.7681 14.0721C56.4844 15.9911 51.9913 21.3214 44.0749 21.3214C37.6562 21.2148 20.1118 21.2148 20.1118 21.2148Z" fill="white"/>
<path d="M76.4894 14.1787L71.1405 21.3214H57.1263L62.4753 14.1787H76.4894Z" fill="white"/>
<path d="M96.9221 14.1787L91.5732 21.3214H77.4521L82.8011 14.1787H96.9221Z" fill="white"/>
<path d="M101.522 14.1787C101.522 14.1787 100.452 15.5646 100.025 16.2042C98.2059 18.5496 99.8105 21.3214 105.587 21.3214C112.22 21.3214 128.267 21.3214 128.267 21.3214L133.616 14.1787H101.522Z" fill="white"/>
<path d="M27.0655 3.9272e-05L22.1445 6.50304C22.1445 6.50304 47.4983 6.50304 48.8891 6.50304C50.2798 6.50304 50.2798 7.03608 49.5309 7.88893C48.8891 8.74179 47.7123 10.3409 47.0704 11.1937C46.7495 11.6202 46.1076 12.473 48.1402 12.473C50.3867 12.473 59.052 12.473 59.052 12.473C59.052 12.473 60.8706 10.1277 62.2613 8.10214C64.2939 5.43698 62.4753 -0.106567 55.3077 -0.106567C48.8891 3.9272e-05 27.0655 3.9272e-05 27.0655 3.9272e-05Z" fill="white"/>
<path d="M98.0989 12.473H63.652L73.0661 0H87.1872L81.8383 7.14265H88.15L93.4989 0H107.62L98.0989 12.473Z" fill="white"/>
<path d="M127.09 0L117.676 12.473H102.699L112.113 0H127.09Z" fill="white"/>
</g>
<defs>
<clipPath id="clip0">
<rect width="153.514" height="21.3213" fill="white"/>
</clipPath>
</defs>
</svg>
