<svg width="154" height="34" viewBox="0 0 154 34" fill="none" xmlns="http://www.w3.org/2000/svg">
<g opacity="0.56" clip-path="url(#clip0)">
<path d="M34.3227 0.0163574C33.4387 0.0163574 32.7155 0.752569 32.7155 1.65238C32.7155 2.5522 33.4387 3.28841 34.3227 3.28841C35.2066 3.28841 35.9299 2.5522 35.9299 1.65238C35.9299 0.752569 35.2066 0.0163574 34.3227 0.0163574ZM34.3227 3.04301C33.5673 3.04301 32.9566 2.42131 32.9566 1.65238C32.9566 0.883452 33.5673 0.261762 34.3227 0.261762C35.078 0.261762 35.6888 0.883452 35.6888 1.65238C35.6888 2.42131 35.078 3.04301 34.3227 3.04301Z" fill="white"/>
<path d="M34.8531 2.05321C34.7887 1.95505 34.7245 1.87324 34.6601 1.80781C34.628 1.77508 34.5798 1.75054 34.5155 1.71783C34.6843 1.69328 34.8128 1.63603 34.8932 1.54604C34.9736 1.45606 35.0137 1.34972 35.0137 1.21884C35.0137 1.12068 34.9896 1.03069 34.9413 0.940712C34.8932 0.85891 34.8289 0.80165 34.7405 0.768929C34.6601 0.736208 34.5396 0.719849 34.3789 0.719849H33.5913V2.53584H33.8244V1.726H34.0976C34.1619 1.726 34.2021 1.726 34.2262 1.73419C34.2663 1.74237 34.2986 1.75873 34.3307 1.78327C34.3628 1.80781 34.403 1.8487 34.4512 1.90597C34.4994 1.96323 34.5557 2.04503 34.62 2.15955L34.8531 2.53584H35.1503L34.8531 2.05321ZM34.3307 1.53787H33.8244V0.932531H34.387C34.5235 0.932531 34.62 0.957072 34.6762 1.01433C34.7405 1.07159 34.7646 1.13703 34.7646 1.22702C34.7646 1.28427 34.7485 1.34154 34.7164 1.39062C34.6843 1.4397 34.6361 1.4806 34.5798 1.49696C34.5235 1.5215 34.4431 1.53787 34.3307 1.53787Z" fill="white"/>
<path d="M151.855 3.26624C150.971 3.26624 150.248 4.00245 150.248 4.90227C150.248 5.80207 150.971 6.53829 151.855 6.53829C152.739 6.53829 153.462 5.80207 153.462 4.90227C153.462 4.00245 152.739 3.26624 151.855 3.26624ZM151.855 6.29288C151.1 6.29288 150.489 5.67119 150.489 4.90227C150.489 4.13333 151.1 3.51164 151.855 3.51164C152.611 3.51164 153.222 4.13333 153.222 4.90227C153.222 5.67119 152.611 6.29288 151.855 6.29288Z" fill="white"/>
<path d="M152.386 5.30296C152.321 5.2048 152.257 5.123 152.193 5.05756C152.161 5.02484 152.112 5.0003 152.048 4.96757C152.217 4.94303 152.345 4.88578 152.426 4.79579C152.507 4.70582 152.547 4.59947 152.547 4.46859C152.547 4.37043 152.523 4.28044 152.474 4.19047C152.426 4.10866 152.362 4.0514 152.273 4.01869C152.193 3.98596 152.072 3.9696 151.912 3.9696H151.124V5.78559H151.358V4.97576H151.63C151.695 4.97576 151.735 4.97576 151.76 4.98394C151.799 4.99211 151.831 5.00848 151.864 5.03302C151.896 5.05756 151.936 5.09846 151.984 5.15572C152.033 5.21298 152.088 5.29479 152.153 5.4093L152.386 5.78559H152.683L152.386 5.30296ZM151.864 4.78761H151.358V4.18228H151.92C152.057 4.18228 152.153 4.20682 152.209 4.26409C152.274 4.32135 152.297 4.38679 152.297 4.47677C152.297 4.53403 152.281 4.59129 152.25 4.64037C152.217 4.68945 152.169 4.73036 152.112 4.74671C152.057 4.77125 151.976 4.78761 151.864 4.78761Z" fill="white"/>
<path d="M35.9214 10.6096C34.8124 0.760751 22.5014 0.875273 16.8521 3.39475L16.8441 0L13.4448 1.02252L12.3037 5.78335C5.65805 9.54621 0.354334 16.3439 0.000752224 23.0761C-0.0796072 30.4546 6.2929 33.8494 12.2395 33.743C16.386 33.6939 20.7254 32.1151 25.2336 29.3421C25.9006 31.0518 26.7363 32.3524 27.6525 33.4485C28.6489 31.1745 29.4204 28.2951 29.9828 24.8594C33.9044 20.0495 36.05 15.2723 35.9214 10.6096ZM14.2002 9.36624V14.2334H12.9628L14.2002 9.36624ZM11.6368 8.78546L10.3832 14.2498L6.67862 14.2334C7.94027 11.9675 9.60371 10.1597 11.6368 8.78546ZM8.78404 22.389C8.55904 24.0822 8.37421 24.9903 7.90009 24.9248C7.35364 24.7285 7.0965 23.3215 6.93578 22.389H8.78404ZM4.17141 19.7877C5.12769 24.6385 6.16432 28.7286 8.6635 28.9822C9.76442 28.9004 10.7689 27.2398 11.5324 22.3809H14.1842V24.794H16.7879V22.3972H18.9254V24.7776H21.6576V22.3972H23.7148L24.5024 27.2071C15.1806 33.0478 0.6597 31.469 4.17141 19.7877ZM27.339 27.3134C26.5998 26.79 26.3667 24.704 26.3265 22.389L28.1346 22.3972C28.1025 24.9821 27.8935 26.8636 27.339 27.3134ZM30.69 18.0044V14.2744H26.1256V12.0575H23.6988V14.1843H21.6094V12.0575H18.9575V14.2089H16.8843V5.70155C27.7167 1.93051 34.9089 8.04925 30.69 18.0044Z" fill="white"/>
<path d="M55.9249 25.0412H52.5013L51.1404 21.5006H44.9098L43.6233 25.0412H40.2848L46.3558 9.45422H49.6837L55.9249 25.0412ZM50.1302 18.8744L47.9826 13.0904L45.8774 18.8744H50.1302Z" fill="white"/>
<path d="M57.6367 25.0412V9.45422H60.6988L67.0782 19.8632V9.45422H70.0021V25.0412H66.8443L60.5606 14.8767V25.0412H57.6367Z" fill="white"/>
<path d="M76.8494 25.0412V12.0911H72.2242V9.45422H84.6109V12.0911H79.9965V25.0412H76.8494Z" fill="white"/>
<path d="M85.6104 17.3435C85.6104 15.7558 85.8478 14.4231 86.3227 13.3457C86.6772 12.5518 87.1592 11.8394 87.7688 11.2086C88.3855 10.5778 89.0589 10.11 89.7889 9.80515C90.76 9.39404 91.8799 9.18848 93.1487 9.18848C95.4452 9.18848 97.2811 9.90084 98.6563 11.3255C100.038 12.7503 100.73 14.7315 100.73 17.269C100.73 19.7853 100.046 21.7558 98.6775 23.1806C97.3095 24.5982 95.4807 25.307 93.1912 25.307C90.8734 25.307 89.0304 24.6018 87.6624 23.1913C86.2944 21.7736 85.6104 19.8243 85.6104 17.3435ZM88.8533 17.2371C88.8533 19.0021 89.2608 20.3418 90.076 21.2561C90.8911 22.1635 91.926 22.617 93.1806 22.617C94.4352 22.617 95.463 22.167 96.264 21.2668C97.072 20.3595 97.4761 19.0021 97.4761 17.1946C97.4761 15.4083 97.0826 14.0758 96.2959 13.1969C95.5161 12.3179 94.4778 11.8785 93.1806 11.8785C91.8835 11.8785 90.838 12.325 90.0441 13.2181C89.2501 14.1041 88.8533 15.4438 88.8533 17.2371Z" fill="white"/>
<path d="M103.228 25.0412V9.45422H106.29L112.669 19.8632V9.45422H115.594V25.0412H112.436L106.152 14.8767V25.0412H103.228Z" fill="white"/>
<path d="M118.294 17.3435C118.294 15.7558 118.531 14.4231 119.007 13.3457C119.361 12.5518 119.843 11.8394 120.453 11.2086C121.069 10.5778 121.743 10.11 122.472 9.80515C123.443 9.39404 124.564 9.18848 125.832 9.18848C128.129 9.18848 129.965 9.90084 131.34 11.3255C132.722 12.7503 133.413 14.7315 133.413 17.269C133.413 19.7853 132.729 21.7558 131.361 23.1806C129.993 24.5982 128.164 25.307 125.875 25.307C123.557 25.307 121.714 24.6018 120.346 23.1913C118.978 21.7736 118.294 19.8243 118.294 17.3435ZM121.537 17.2371C121.537 19.0021 121.944 20.3418 122.76 21.2561C123.575 22.1635 124.609 22.617 125.864 22.617C127.119 22.617 128.147 22.167 128.948 21.2668C129.756 20.3595 130.16 19.0021 130.16 17.1946C130.16 15.4083 129.766 14.0758 128.98 13.1969C128.2 12.3179 127.161 11.8785 125.864 11.8785C124.567 11.8785 123.522 12.325 122.728 13.2181C121.933 14.1041 121.537 15.4438 121.537 17.2371Z" fill="white"/>
<path d="M139.856 25.0412L134.285 9.45422H137.698L141.643 20.9903L145.46 9.45422H148.798L143.216 25.0412H139.856Z" fill="white"/>
</g>
<defs>
<clipPath id="clip0">
<rect width="153.514" height="33.7512" fill="white"/>
</clipPath>
</defs>
</svg>
