<svg width="160" height="24" viewBox="0 0 160 24" fill="none" xmlns="http://www.w3.org/2000/svg">
<g clip-path="url(#clip0)">
<path d="M0 22.2H19.4007L18.2857 23.88H0V22.2Z" fill="#D40511"/>
<path d="M160 23.88H136.251L137.477 22.2H160.111V23.88H160Z" fill="#D40511"/>
<path d="M0 19.08H21.6307L20.4042 20.76H0V19.08Z" fill="#D40511"/>
<path d="M0 15.96H23.8606L22.6341 17.64H0V15.96Z" fill="#D40511"/>
<path d="M160 20.76H138.481L139.707 19.08H160.112V20.76H160Z" fill="#D40511"/>
<path d="M141.826 15.96H160V17.64H140.599L141.826 15.96Z" fill="#D40511"/>
<path d="M20.9617 23.88L31.2195 9.12C31.2195 9.12 42.5923 9.12 43.9303 9.12C45.3798 9.12 45.3798 9.71999 44.5993 10.68C43.9303 11.64 42.7038 13.44 42.0348 14.4C41.7003 15 41.0314 15.84 43.1498 15.84C45.4913 15.84 60.2091 15.84 60.2091 15.84C58.8711 18 54.1882 24 45.9373 24C39.2474 23.88 20.9617 23.88 20.9617 23.88Z" fill="#D40511"/>
<path d="M79.7212 15.96L74.1463 24H59.54L65.115 15.96H79.7212Z" fill="#D40511"/>
<path d="M101.017 15.96L95.4425 24H80.7247L86.2996 15.96H101.017Z" fill="#D40511"/>
<path d="M105.812 15.96C105.812 15.96 104.697 17.52 104.251 18.24C102.355 20.88 104.028 24 110.049 24C116.962 24 133.686 24 133.686 24L139.261 15.96H105.812Z" fill="#D40511"/>
<path d="M28.209 4.88013e-06L23.0801 7.32C23.0801 7.32 49.5052 7.32 50.9546 7.32C52.4041 7.32 52.4041 7.92 51.6236 8.88C50.9546 9.84 49.7282 11.64 49.0592 12.6C48.7247 13.08 48.0557 14.04 50.1741 14.04C52.5156 14.04 61.547 14.04 61.547 14.04C61.547 14.04 63.4424 11.4 64.8919 9.12C67.0104 6.12 65.1149 -0.119995 57.6445 -0.119995C50.9546 4.88013e-06 28.209 4.88013e-06 28.209 4.88013e-06Z" fill="#D40511"/>
<path d="M102.244 14.04H66.3414L76.1533 0H90.871L85.2961 8.04H91.8745L97.4494 0H112.167L102.244 14.04Z" fill="#D40511"/>
<path d="M132.46 0L122.648 14.04H107.038L116.85 0H132.46Z" fill="#D40511"/>
</g>
<defs>
<clipPath id="clip0">
<rect width="160" height="24" fill="white"/>
</clipPath>
</defs>
</svg>
