<svg width="160" height="39" viewBox="0 0 160 39" fill="none" xmlns="http://www.w3.org/2000/svg">
<g clip-path="url(#clip0)">
<path d="M1.83203 30.6162L5.06867 13.4761H11.4809C12.7023 13.414 13.8626 13.7245 14.9007 14.3455C15.6946 14.9045 16 15.836 15.7557 17.2643C15.5725 18.3822 14.9618 19.3137 14.0458 19.9968C13.1297 20.6799 12.0305 21.1768 10.9313 21.301L10.8702 21.4873C11.9084 21.5494 12.8855 21.9841 13.6794 22.6051C14.4733 23.2261 14.7175 24.2198 14.4733 25.586C14.229 27.1385 13.3129 28.5048 11.9694 29.3121C10.6259 30.1194 9.16028 30.5541 7.57249 30.5541H1.83203V30.6162ZM7.38928 20.8041C7.99997 20.8041 8.61066 20.8041 9.22134 20.742C9.64883 20.6799 10.0763 20.4936 10.3816 20.1831C11.2366 19.5621 11.7862 18.5685 11.9694 17.5127C12.2137 16.8296 12.0916 16.0844 11.6641 15.4634C11.2366 14.9666 10.5649 14.6561 9.8931 14.7182C9.52669 14.7182 9.09921 14.7803 8.61066 14.7803L7.38928 20.8041ZM5.86257 29.1258H7.08394C7.87783 29.1258 8.67173 28.8153 9.28241 28.2564C10.0152 27.6975 10.5038 26.828 10.687 25.8965C10.9313 24.5303 10.7481 23.5366 10.1984 22.9777C9.34348 22.3567 8.24425 22.1704 7.20608 22.2946L5.86257 29.1258Z" fill="#673774"/>
<path d="M34.4427 26.5175C33.3435 27.9459 31.9389 29.0637 30.3511 29.871C28.6412 30.6784 26.8091 31.1131 24.9771 31.1131C23.3893 31.1752 21.8015 30.8026 20.3358 30.0574C19.1145 29.3742 18.1984 28.2564 17.7099 26.9523C17.2213 25.3997 17.1603 23.723 17.5267 22.1704C17.771 20.9284 18.2595 19.6863 18.8702 18.6306C19.542 17.5128 20.3358 16.5191 21.3129 15.7118C22.3511 14.9045 23.5725 14.2214 24.7939 13.7867C26.1374 13.3519 27.603 13.1035 29.0076 13.1035C30.7786 12.9793 32.6107 13.4761 34.0763 14.5319C35.2366 15.3392 36.0305 16.5812 36.3358 17.9475C36.6412 19.3137 36.7023 20.7421 36.3969 22.1704C36.2137 23.6609 35.4809 25.2134 34.4427 26.5175ZM25.4045 15.4013C24.3664 16.1465 23.5725 17.0781 23.0229 18.1959C22.29 19.6863 21.8015 21.2389 21.4962 22.7914C21.3129 23.8472 21.2519 24.965 21.4351 26.0828C21.5572 27.0144 21.9847 27.8838 22.6565 28.5669C23.3893 29.25 24.4275 29.5605 25.4045 29.5605C26.5649 29.5605 27.7252 29.1879 28.7023 28.5048C29.7404 27.6975 30.5343 26.6417 31.145 25.5239C31.7557 24.2819 32.2442 22.9156 32.4885 21.5494C32.6717 20.4316 32.7328 19.3137 32.5496 18.258C32.4275 17.2644 32 16.3328 31.3282 15.6497C30.5954 14.9045 29.6183 14.5319 28.6412 14.594C27.4809 14.4698 26.3816 14.7803 25.4045 15.4013Z" fill="#673774"/>
<path d="M40.7939 13.414H46.0458C48.1222 13.414 49.4046 13.6003 50.0153 13.9108C51.2367 14.5939 51.8474 16.0844 51.481 17.4506C51.2977 18.6306 50.7481 19.6863 49.8932 20.4936C49.0382 21.3009 47.939 21.8599 46.7787 22.1083C47.2061 23.2261 48.1832 25.586 49.8321 29.1879L50.5038 30.7404C49.2825 30.6783 48.5497 30.6162 48.3054 30.6162C48.0611 30.6162 47.3283 30.6162 46.0458 30.7404L44.0916 25.4618C43.9695 25.2134 43.9084 24.8408 43.6031 24.2197C43.2977 23.5987 43.1756 23.164 42.9924 22.6672H42.7481L41.2214 30.7404C40.1832 30.6783 39.5726 30.6162 39.3893 30.6162C39.2061 30.6162 38.5955 30.6162 37.4962 30.7404L40.7939 13.414ZM42.9924 21.5494C45.6184 21.7978 47.084 20.6799 47.5726 18.0095C47.6336 17.5127 47.6336 17.1401 47.6947 16.7675C47.6947 15.836 47.3893 15.2771 46.8397 15.1529C45.9848 14.9665 45.1298 14.9044 44.2748 14.9044L42.9924 21.5494Z" fill="#673774"/>
<path d="M115.176 13.414C116.214 13.4761 116.886 13.4761 117.008 13.5382C117.191 13.6003 117.863 13.4761 118.901 13.414L115.603 30.6783L113.71 30.5541C113.527 30.5541 112.916 30.5541 111.817 30.6783L115.176 13.414Z" fill="#673774"/>
<path d="M100.763 30.7405C99.7862 30.6784 99.1755 30.6163 98.9312 30.6163C98.748 30.6163 98.1373 30.6163 97.0381 30.7405L100.397 13.4761H106.504C109.985 13.4761 111.511 14.9045 111.023 17.6991C110.84 18.9411 110.29 20.121 109.435 21.0526C108.641 21.8599 107.603 22.4188 106.504 22.7293C105.099 23.0398 103.695 23.164 102.29 23.164L100.763 30.7405ZM102.534 21.7357C103.084 21.7357 103.695 21.6736 104.244 21.5494C105.771 21.1768 106.687 19.9968 107.114 18.1338C107.298 17.3265 107.237 16.457 106.931 15.7118C106.626 15.1529 106.076 14.7803 105.466 14.8424H103.939L102.534 21.7357Z" fill="#673774"/>
<path d="M124.519 28.8153C126.168 28.8153 128 28.6911 130.26 28.5048C130.076 28.8153 129.954 29.1879 129.893 29.5605C129.893 29.6847 129.893 29.8089 129.832 29.9331V30.3058C129.832 30.43 129.832 30.5542 129.832 30.6163H120.427L123.664 13.4761C124.702 13.5382 125.313 13.5382 125.496 13.6003C125.679 13.6624 126.351 13.5382 127.389 13.4761L124.519 28.8153Z" fill="#673774"/>
<path d="M33.7099 35.4602L34.2595 38.8758H33.4656L33.4045 38.2548H32.1832L31.8168 38.8758H30.9618L32.916 35.4602H33.7099ZM33.2824 37.6959L33.0992 36.3917L32.3664 37.6959H33.2824Z" fill="#673774"/>
<path d="M36.9465 35.4602L36.2137 38.9379H35.4198L36.1526 35.4602H36.9465Z" fill="#673774"/>
<path d="M38.5343 35.4602H40.1832C40.4274 35.4602 40.6717 35.4602 40.8549 35.5844C41.0992 35.7086 41.2213 36.0191 41.2213 36.3296C41.2213 36.6401 41.0992 36.8885 40.916 37.0749C40.7939 37.1991 40.6106 37.2612 40.4885 37.3233C40.6717 37.3854 40.8549 37.5717 40.7939 37.758C40.7939 37.8822 40.7938 38.0685 40.7328 38.1927C40.7328 38.3169 40.6717 38.4411 40.6717 38.6274C40.6717 38.6895 40.6717 38.8137 40.7328 38.8758H39.8778C39.8778 38.8137 39.8778 38.6895 39.8778 38.6274C39.8778 38.5032 39.8778 38.379 39.9389 38.2548C39.9389 38.1306 40 38.0685 40 37.9443C40 37.758 39.8778 37.6338 39.5725 37.6338H38.9618L38.7175 38.8758H37.8625L38.5343 35.4602ZM39.0229 37.0128H39.7557C39.9389 37.0128 40.061 36.9507 40.2442 36.8886C40.3053 36.7643 40.3664 36.7022 40.3664 36.578C40.3664 36.3296 40.1832 36.2054 39.8778 36.2054H39.2061L39.0229 37.0128Z" fill="#673774"/>
<path d="M44.4581 35.4602C44.7023 35.4602 44.9466 35.5223 45.1298 35.6465C45.3741 35.8328 45.4962 36.0812 45.4962 36.3917C45.4962 36.578 45.4352 36.7643 45.3741 36.9507C45.313 37.137 45.1298 37.3233 45.0077 37.4475C44.8855 37.5717 44.7023 37.6338 44.5191 37.6959C44.3359 37.758 44.1527 37.758 43.9695 37.758H43.2367L42.9924 38.9379H42.1375L42.8092 35.5223L44.4581 35.4602ZM43.3588 37.0749H43.9695C44.0916 37.0749 44.2138 37.0749 44.3359 37.0128C44.5802 36.9507 44.7023 36.6401 44.5802 36.3917C44.5802 36.3296 44.5191 36.2675 44.4581 36.2054C44.3359 36.1433 44.2138 36.1433 44.1527 36.1433H43.481L43.3588 37.0749Z" fill="#673774"/>
<path d="M46.7786 38.5653C46.5954 38.2548 46.4733 37.9443 46.4733 37.5716C46.4733 37.2611 46.5343 37.0127 46.5954 36.7643C46.7175 36.5159 46.8397 36.2054 47.0229 36.0191C47.3893 35.5844 47.9389 35.3981 48.4885 35.3981C48.7328 35.3981 48.916 35.3981 49.0992 35.5223C49.2824 35.5844 49.4046 35.7086 49.5267 35.8328C49.6488 35.957 49.7099 36.0812 49.771 36.2675C49.832 36.4538 49.8931 36.6401 49.8931 36.8264C49.8931 37.1369 49.832 37.3853 49.771 37.6337C49.7099 37.9443 49.5267 38.1927 49.3435 38.379C49.2214 38.5032 49.0992 38.6274 48.916 38.7516C48.7939 38.8137 48.6107 38.8758 48.4275 38.9379C48.2443 39 48.0611 39 47.8778 39C47.5114 39.0621 47.084 38.8758 46.7786 38.5653ZM48.916 37.82C49.0381 37.5716 49.1603 37.2611 49.1603 36.9506C49.1603 36.3917 48.916 36.0812 48.4275 36.0812C48.0611 36.0191 47.6946 36.2675 47.5725 36.578C47.4504 36.8264 47.3282 37.1369 47.3282 37.4474C47.3282 37.82 47.3893 38.0685 47.5725 38.1306C47.6946 38.2548 47.8778 38.2548 48.061 38.2548C48.3664 38.3169 48.7328 38.1306 48.916 37.82Z" fill="#673774"/>
<path d="M51.7863 35.4602H53.4351C53.6183 35.4602 53.8626 35.5223 54.0458 35.5844C54.2901 35.7086 54.4122 36.0191 54.4122 36.3296C54.4122 36.6401 54.2901 36.8885 54.1069 37.0749C53.9847 37.1991 53.8015 37.2612 53.6794 37.3233C53.8626 37.3854 54.0458 37.5717 53.9847 37.758C53.9847 37.8822 53.9847 38.0685 53.9237 38.1927C53.9237 38.3169 53.8626 38.4411 53.8626 38.6274C53.8626 38.6895 53.8626 38.8137 53.9237 38.8758H53.1298C53.1298 38.8137 53.1298 38.6895 53.1298 38.6274C53.1298 38.5032 53.1298 38.379 53.1298 38.2548C53.1298 38.1306 53.1908 38.0685 53.1908 37.9443C53.1908 37.758 53.0076 37.6338 52.7634 37.6338H52.1527L51.9084 38.8758H51.1145L51.7863 35.4602ZM52.2748 37.0128H53.0076C53.1908 37.0128 53.313 36.9507 53.4962 36.8886C53.5573 36.7643 53.6183 36.7022 53.6183 36.578C53.6183 36.3296 53.4351 36.2054 53.1298 36.2054H52.458L52.2748 37.0128Z" fill="#673774"/>
<path d="M55.6947 36.1433L55.8168 35.4602H58.626L58.4428 36.1433H57.4657L56.9161 38.9379H56.1222L56.6718 36.1433H55.6947Z" fill="#673774"/>
<path d="M7.57251 36.1433V38.2548H29.9237L31.0229 36.1433H7.57251Z" fill="#673774"/>
<path d="M23.4504 38.3169V36.2054C15.7557 36.2054 8.12214 36.2054 0.427481 36.2054C0.305344 36.8886 0.122137 37.6338 0 38.3169H23.4504Z" fill="#673774"/>
<path d="M160 7.07962V6.14809L138.809 4.84395L135.695 0.621019L133.374 0L134.168 5.15446H132.947L132.763 6.89331L160 7.07962Z" fill="#673774"/>
<path d="M55.8778 30.7405C56.4274 28.1322 56.916 25.5239 57.4656 22.9156L53.8625 13.3519C54.6564 13.414 55.5114 13.4761 56.4274 13.414C56.7938 13.414 57.1603 13.3519 57.5267 13.3519C58.3816 15.5876 59.2366 17.8233 60.0916 20.0589L65.2213 13.3519C65.832 13.414 66.5038 13.4761 67.2366 13.414C67.603 13.414 67.9694 13.3519 68.2748 13.3519C65.832 16.5191 63.4503 19.6242 61.0076 22.7914C60.519 25.4618 59.9694 28.0701 59.4809 30.7405C58.9313 30.6784 58.3816 30.6784 57.7709 30.6784C57.0992 30.6163 56.4274 30.6784 55.8778 30.7405Z" fill="#673774"/>
<path d="M75.3588 14.2213C76.0306 10.6194 78.7787 6.8933 86.5344 6.8933H86.5955H130.26V5.40285C114.565 5.21655 87.3283 4.96814 84.1527 4.96814C75.542 4.96814 72.0611 9.25317 71.2062 12.2962C70.3512 15.3392 70.9619 19.6242 80.0001 23.2261C86.5344 25.7723 86.5955 28.7532 85.6184 31.5478C84.4581 34.8392 79.084 36.2675 76.0917 36.2675H59.8474L59.2367 38.3169H76.0917C90.0764 37.7579 91.6031 30.8025 90.7481 27.8837C89.0382 21.922 74.1375 21.1767 75.3588 14.2213Z" fill="#673774"/>
</g>
<defs>
<clipPath id="clip0">
<rect width="160" height="39" fill="white"/>
</clipPath>
</defs>
</svg>
