<svg width="160" height="37" viewBox="0 0 160 37" fill="none" xmlns="http://www.w3.org/2000/svg">
<path d="M58.6625 27.8755H55.1249L53.7187 24.2171H47.2808L45.9514 27.8755H42.5018L48.7749 11.7698H52.2136L58.6625 27.8755ZM52.6749 21.5035L50.4557 15.5271L48.2805 21.5035H52.6749ZM60.4312 27.8755V11.7698H63.5952L70.1869 22.5252V11.7698H73.2081V27.8755H69.9452L63.4524 17.3728V27.8755H60.4312ZM80.2831 27.8755V14.4944H75.5042V11.7698H88.3031V14.4944H83.5351V27.8755H80.2831ZM89.3357 19.9215C89.3357 18.2809 89.5811 16.9041 90.0718 15.7907C90.4381 14.9705 90.9361 14.2344 91.5659 13.5825C92.2032 12.9306 92.8989 12.4473 93.6533 12.1324C94.6568 11.7076 95.8139 11.4952 97.125 11.4952C99.4979 11.4952 101.395 12.2313 102.816 13.7034C104.244 15.1755 104.958 17.2226 104.958 19.8447C104.958 22.4447 104.251 24.4808 102.838 25.9529C101.424 27.4178 99.5346 28.1502 97.1688 28.1502C94.7739 28.1502 92.8697 27.4214 91.4561 25.9639C90.0426 24.4991 89.3357 22.485 89.3357 19.9215ZM92.6865 19.8117C92.6865 21.6354 93.1077 23.0196 93.9499 23.9645C94.7923 24.902 95.8615 25.3707 97.1578 25.3707C98.4542 25.3707 99.5163 24.9056 100.344 23.9755C101.179 23.038 101.596 21.6354 101.596 19.7678C101.596 17.9221 101.19 16.5451 100.377 15.637C99.5712 14.7287 98.4982 14.2746 97.1578 14.2746C95.8176 14.2746 94.7373 14.7361 93.917 15.659C93.0967 16.5745 92.6865 17.9587 92.6865 19.8117ZM107.54 27.8755V11.7698H110.704L117.296 22.5252V11.7698H120.317V27.8755H117.054L110.561 17.3728V27.8755H107.54ZM123.107 19.9215C123.107 18.2809 123.353 16.9041 123.843 15.7907C124.209 14.9705 124.708 14.2344 125.337 13.5825C125.974 12.9306 126.671 12.4473 127.424 12.1324C128.428 11.7076 129.585 11.4952 130.897 11.4952C133.269 11.4952 135.167 12.2313 136.587 13.7034C138.015 15.1755 138.729 17.2226 138.729 19.8447C138.729 22.4447 138.023 24.4808 136.609 25.9529C135.195 27.4178 133.305 28.1502 130.94 28.1502C128.545 28.1502 126.641 27.4214 125.228 25.9639C123.814 24.4991 123.107 22.485 123.107 19.9215ZM126.458 19.8117C126.458 21.6354 126.879 23.0196 127.722 23.9645C128.564 24.902 129.633 25.3707 130.929 25.3707C132.225 25.3707 133.288 24.9056 134.115 23.9755C134.95 23.038 135.368 21.6354 135.368 19.7678C135.368 17.9221 134.962 16.5451 134.148 15.637C133.343 14.7287 132.269 14.2746 130.929 14.2746C129.589 14.2746 128.509 14.7361 127.688 15.659C126.868 16.5745 126.458 17.9587 126.458 19.8117ZM145.388 27.8755L139.63 11.7698H143.157L147.233 23.6898L151.176 11.7698H154.626L148.859 27.8755H145.388Z" fill="#1B2B3E"/>
<path d="M37.0184 0.393494C36.065 0.393494 35.285 1.1842 35.285 2.15062C35.285 3.11703 36.065 3.90774 37.0184 3.90774C37.9717 3.90774 38.7517 3.11703 38.7517 2.15062C38.7517 1.1842 37.9717 0.393494 37.0184 0.393494ZM37.0184 3.64417C36.2038 3.64417 35.545 2.97647 35.545 2.15062C35.545 1.32477 36.2038 0.657062 37.0184 0.657062C37.8331 0.657062 38.4917 1.32477 38.4917 2.15062C38.4917 2.97647 37.8331 3.64417 37.0184 3.64417Z" fill="#1B2B3E"/>
<path d="M37.5905 2.58116C37.5212 2.47574 37.4518 2.38788 37.3825 2.31759C37.3478 2.28245 37.2958 2.25609 37.2265 2.22095C37.4085 2.19459 37.5472 2.13309 37.6338 2.03646C37.7205 1.93981 37.7638 1.8256 37.7638 1.68503C37.7638 1.5796 37.7378 1.48296 37.6858 1.38632C37.6338 1.29846 37.5645 1.23697 37.4692 1.20182C37.3825 1.16668 37.2525 1.14911 37.0792 1.14911H36.2299V3.09952H36.4811V2.22974H36.7758C36.8452 2.22974 36.8885 2.22974 36.9145 2.23853C36.9578 2.24732 36.9925 2.26488 37.0272 2.29124C37.0618 2.31759 37.1052 2.36153 37.1572 2.42303C37.2092 2.48453 37.2698 2.57237 37.3392 2.69537L37.5905 3.09952H37.9112L37.5905 2.58116ZM37.0272 2.02767H36.4811V1.37754H37.0878C37.2352 1.37754 37.3392 1.40389 37.3998 1.46539C37.4692 1.52689 37.4952 1.59718 37.4952 1.69381C37.4952 1.75531 37.4778 1.81681 37.4432 1.86954C37.4085 1.92225 37.3565 1.96617 37.2958 1.98375C37.2352 2.0101 37.1485 2.02767 37.0272 2.02767Z" fill="#1B2B3E"/>
<path d="M158.266 7.89343C157.314 7.89343 156.534 8.68413 156.534 9.65056C156.534 10.617 157.314 11.4077 158.266 11.4077C159.22 11.4077 160 10.617 160 9.65056C160 8.68413 159.22 7.89343 158.266 7.89343ZM158.266 11.1441C157.451 11.1441 156.794 10.4764 156.794 9.65056C156.794 8.82471 157.451 8.157 158.266 8.157C159.081 8.157 159.74 8.82471 159.74 9.65056C159.74 10.4764 159.081 11.1441 158.266 11.1441Z" fill="#1B2B3E"/>
<path d="M158.839 10.081C158.769 9.97562 158.7 9.88776 158.631 9.81747C158.596 9.78233 158.544 9.75597 158.475 9.72083C158.656 9.69447 158.795 9.63297 158.883 9.53634C158.969 9.43969 159.013 9.32548 159.013 9.1849C159.013 9.07948 158.986 8.98284 158.934 8.8862C158.883 8.79835 158.813 8.73685 158.718 8.7017C158.631 8.66656 158.501 8.64899 158.328 8.64899H157.478V10.5994H157.729V9.72962H158.024C158.094 9.72962 158.136 9.72962 158.163 9.73841C158.206 9.74719 158.241 9.76476 158.275 9.79112C158.31 9.81747 158.354 9.86141 158.405 9.9229C158.458 9.9844 158.518 10.0723 158.588 10.1953L158.839 10.5994H159.159L158.839 10.081ZM158.275 9.52755H157.729V8.87741H158.336C158.484 8.87741 158.588 8.90377 158.648 8.96527C158.718 9.02677 158.744 9.09705 158.744 9.19369C158.744 9.25519 158.726 9.31669 158.691 9.36941C158.656 9.42212 158.605 9.46605 158.544 9.48362C158.484 9.50997 158.396 9.52755 158.275 9.52755Z" fill="#1B2B3E"/>
<path d="M38.7415 11.7709C37.5455 1.19304 24.268 1.31604 18.1752 4.02201L18.1665 0.375977L14.5004 1.47418L13.2697 6.5874C6.10225 10.6288 0.382151 17.9296 0.000811279 25.1602C-0.085857 33.0848 6.78694 36.7308 13.2004 36.6167C17.6725 36.5639 22.3525 34.8683 27.2147 31.89C27.9341 33.7262 28.8353 35.1231 29.8234 36.3003C30.898 33.858 31.7301 30.7654 32.3367 27.0754C36.5662 21.9095 38.8803 16.7787 38.7415 11.7709ZM15.3151 10.4355V15.663H13.9804L15.3151 10.4355ZM12.5504 9.81172L11.1983 15.6805L7.20295 15.663C8.56364 13.2293 10.3577 11.2877 12.5504 9.81172ZM9.47365 24.4222C9.23098 26.2408 9.03165 27.2161 8.5203 27.1457C7.93096 26.9349 7.65362 25.4237 7.48028 24.4222H9.47365ZM4.49889 21.6284C5.53025 26.8382 6.64827 31.231 9.34365 31.5034C10.531 31.4155 11.6144 29.632 12.4377 24.4133H15.2978V27.0052H18.1058V24.431H20.4112V26.9876H23.3579V24.431H25.5766L26.426 29.5969C16.3725 35.8698 0.711491 34.1742 4.49889 21.6284ZM29.4854 29.7111C28.688 29.1489 28.4367 26.9086 28.3933 24.4222L30.3434 24.431C30.3088 27.2072 30.0834 29.2279 29.4854 29.7111ZM33.0995 19.713V15.7069H28.1767V13.326H25.5593V15.6102H23.3059V13.326H20.4458V15.6366H18.2098V6.49954C29.8927 2.44938 37.6495 9.02102 33.0995 19.713Z" fill="#1B2B3E"/>
</svg>
